<svg class="animated" id="freepik_stories-computer-login" xmlns="http://www.w3.org/2000/svg" viewBox="0 0 750 500" version="1.1" xmlns:xlink="http://www.w3.org/1999/xlink" xmlns:svgjs="http://svgjs.com/svgjs"><style>svg#freepik_stories-computer-login:not(.animated) .animable {opacity: 0;}svg#freepik_stories-computer-login.animated #freepik--Plant--inject-45 {animation: 1.5s Infinite  linear wind;animation-delay: 0s;}svg#freepik_stories-computer-login.animated #freepik--character-2--inject-45 {animation: 1s 1 forwards cubic-bezier(.36,-0.01,.5,1.38) fadeIn,1.5s Infinite  linear wind;animation-delay: 0s,1s;}svg#freepik_stories-computer-login.animated #freepik--character-1--inject-45 {animation: 1s 1 forwards cubic-bezier(.36,-0.01,.5,1.38) slideLeft,1.5s Infinite  linear floating;animation-delay: 0s,1s;}svg#freepik_stories-computer-login.animated #freepik--speech-bubble--inject-45 {animation: 1s 1 forwards cubic-bezier(.36,-0.01,.5,1.38) slideDown,1.5s Infinite  linear wind;animation-delay: 0s,1s;}            @keyframes wind {                0% {                    transform: rotate( 0deg );                }                25% {                    transform: rotate( 1deg );                }                75% {                    transform: rotate( -1deg );                }            }                    @keyframes fadeIn {                0% {                    opacity: 0;                }                100% {                    opacity: 1;                }            }                    @keyframes slideLeft {                0% {                    opacity: 0;                    transform: translateX(-30px);                }                100% {                    opacity: 1;                    transform: translateX(0);                }            }                    @keyframes floating {                0% {                    opacity: 1;                    transform: translateY(0px);                }                50% {                    transform: translateY(-10px);                }                100% {                    opacity: 1;                    transform: translateY(0px);                }            }                    @keyframes slideDown {                0% {                    opacity: 0;                    transform: translateY(-30px);                }                100% {                    opacity: 1;                    transform: translateY(0);                }            }        </style><g id="freepik--Floor--inject-45" class="animable" style="transform-origin: 375px 441.605px;"><polygon points="50.72 441.6 131.79 441.36 212.86 441.27 375 441.11 537.14 441.27 618.21 441.36 699.28 441.6 618.21 441.85 537.14 441.94 375 442.1 212.86 441.94 131.79 441.85 50.72 441.6" style="fill: rgb(38, 50, 56); transform-origin: 375px 441.605px;" id="el2nm7091b4kv" class="animable"></polygon></g><g id="freepik--Plant--inject-45" class="animable" style="transform-origin: 97.125px 333.415px;"><path d="M94.27,274.51s-23.52-3.3-18-31.7C76.24,242.81,102.53,248.71,94.27,274.51Z" style="fill: rgb(121, 196, 176); transform-origin: 85.6535px 258.66px;" id="eliwy651l2ss" class="animable"></path><g id="elwdwyxw6rcj"><path d="M94.27,274.51s-23.52-3.3-18-31.7C76.24,242.81,102.53,248.71,94.27,274.51Z" style="opacity: 0.1; transform-origin: 85.6535px 258.66px;" class="animable"></path></g><path d="M93.08,268.58a44.83,44.83,0,0,0-1.6-4.23c0-.19,0-.37-.06-.54,0-.39-.07-.78-.1-1.17-.06-.85-.12-1.7-.17-2.55-.1-1.69-.21-3.39-.23-5.09,0-.09-.14-.09-.15,0,0,1.7,0,3.4,0,5.1,0,.85.08,1.7.14,2.55,0,.18,0,.37,0,.56a51.28,51.28,0,0,0-4.72-8.07c-.81-1.13-1.66-2.21-2.57-3.26s-1.93-2.09-2.88-3.15c-.06-.07-.16,0-.1.1a42.47,42.47,0,0,1,4.54,6c.71,1.08,1.39,2.19,2,3.32l-.22-.09-.84-.34L84.3,257c-1.26-.47-2.53-.93-3.78-1.41-.08,0-.13.1-.06.13,1.26.5,2.49,1,3.73,1.56l1.82.78c.31.14.61.26.92.38a2.56,2.56,0,0,0,.62.22c.48.86,1,1.71,1.38,2.58a62.1,62.1,0,0,1,2.88,6.78c0,.16.11.32.17.49a14.81,14.81,0,0,0-1.93-.93c-.81-.38-1.63-.74-2.44-1.11-1.65-.76-3.29-1.53-4.87-2.42-.08-.05-.15.08-.07.12,1.62.89,3.2,1.83,4.82,2.71.81.44,1.63.86,2.45,1.26a7.94,7.94,0,0,0,2.21.89,27.76,27.76,0,0,1,1.55,6.67c.26,3.21.23,6.45.3,9.67a0,0,0,0,0,.09,0c.23-2.92.37-5.87.38-8.8A25.46,25.46,0,0,0,93.08,268.58Z" style="fill: rgb(38, 50, 56); transform-origin: 87.4483px 267.036px;" id="elzhoc4yiklgh" class="animable"></path><path d="M89.46,251.88a28,28,0,0,0-.23,5s.06,0,.07,0c.09-1.66.11-3.31.3-5C89.61,251.82,89.47,251.79,89.46,251.88Z" style="fill: rgb(38, 50, 56); transform-origin: 89.402px 254.352px;" id="el7lwb751pay" class="animable"></path><path d="M82.73,253.3a18,18,0,0,1-3-1.49c-.08-.05-.15.08-.07.13a11.58,11.58,0,0,0,3,1.46C82.75,253.41,82.79,253.32,82.73,253.3Z" style="fill: rgb(38, 50, 56); transform-origin: 81.1916px 252.6px;" id="elgal6z81afbg" class="animable"></path><path d="M95,319.59c0-2.6-.07-5.2-.1-7.8,0-8.63-.12-17.26-.27-25.9q-.2-10.27-.48-20.55a.11.11,0,0,0-.06-.09l0-5.62s-.06-.07-.11-.06-.11,0-.11.07c0,1.87,0,3.75,0,5.62a.1.1,0,0,0,0,.08c-.35,12.2-.66,24.4-.73,36.6,0,2.48,0,5,0,7.44q-.13,11.94-.1,23.86c0,1.27,0,2.54,0,3.8,0,7.28.07,14.56.07,21.84,0,.39.44.58.9.6s1.09-.19,1.09-.64c0-8,.06-16,.06-24.07C95,329.71,95.06,324.65,95,319.59Z" style="fill: rgb(38, 50, 56); transform-origin: 94.0972px 309.525px;" id="el5st7pl9fgzc" class="animable"></path><path d="M85.2,311.69S73.88,303.31,63.14,309s-12.42,27.5-12.42,27.5,15.77,2.25,25.7-7.2C86,320.17,85.2,311.69,85.2,311.69Z" style="fill: rgb(121, 196, 176); transform-origin: 67.9682px 321.877px;" id="elokgxuh7p0qq" class="animable"></path><path d="M88.28,312.21a13.51,13.51,0,0,0-6.55-.85,9.22,9.22,0,0,0-1.39-.14l-1.59-.12-3.3-.23c-2.24-.17-4.48-.3-6.7-.53-.08,0-.1.13,0,.14,2.21.28,4.4.6,6.61.82,1.14.12,2.28.23,3.42.31l.83.09c-.34.07-.68.15-1,.24A27.76,27.76,0,0,0,73.45,314c-.89.16-1.77.41-2.65.61-1.4.33-2.79.69-4.18,1.06-2.75.72-5.47,1.53-8.2,2.32-.08,0,0,.16,0,.14,2.72-.67,5.46-1.28,8.19-1.93l4-1c.34-.09.69-.17,1-.24a32.87,32.87,0,0,0-8,7,42.9,42.9,0,0,0-5.59,8.81c0,.08.07.16.12.08A43.26,43.26,0,0,1,64.93,322l-.15.45-.63,2c-.41,1.34-.84,2.67-1.24,4a.07.07,0,0,0,.14,0c.48-1.29.93-2.59,1.39-3.89.22-.64.45-1.27.67-1.91.12-.33.23-.66.34-1a2.83,2.83,0,0,1,.11-.31,40.49,40.49,0,0,1,4-3.42,30.56,30.56,0,0,1,6-3.44l-.12.58-.33,1.55c-.22,1.07-.43,2.14-.64,3.22-.42,2.19-.69,4.4-1.1,6.59,0,.09.12.13.14,0,.51-2.2,1.16-4.37,1.65-6.58.25-1.1.5-2.21.73-3.31.1-.52.21-1,.31-1.55a8.85,8.85,0,0,0,.16-.87c.21-.08.41-.18.61-.25,3-1.1,6.25-1.9,9.42-1.29a9.25,9.25,0,0,1,6.81,5.45c.1.25.49.1.43-.16A8.75,8.75,0,0,0,88.28,312.21Z" style="fill: rgb(38, 50, 56); transform-origin: 75.8281px 320.612px;" id="el3k82cp9trvb" class="animable"></path><path d="M71,321.54l-1,4.3a33.1,33.1,0,0,0-.79,4.18c0,.06.08.06.1,0a33.74,33.74,0,0,0,1-4.21c.28-1.42.55-2.83.83-4.25A.07.07,0,0,0,71,321.54Z" style="fill: rgb(38, 50, 56); transform-origin: 70.1754px 325.772px;" id="eleo6fmmoldwo" class="animable"></path><path d="M60,325.18c-1.44.73-2.84,1.56-4.35,2.16-.09,0,0,.18.06.13a46.38,46.38,0,0,0,4.32-2.23S60.05,325.16,60,325.18Z" style="fill: rgb(38, 50, 56); transform-origin: 57.8229px 326.328px;" id="elx8wnvjt3zb" class="animable"></path><path d="M87.74,296.3s-13.83.88-20.26-8.24-5-22.14-5-22.14,14.53,1.76,20.3,8.31S87.74,296.3,87.74,296.3Z" style="fill: rgb(121, 196, 176); transform-origin: 75.0617px 281.122px;" id="el7ufzeah1jhk" class="animable"></path><path d="M94.23,309.94c-.48-1.48-1.07-2.94-1.63-4.39s-1.11-2.78-1.72-4.14a83.19,83.19,0,0,0-4.15-8.15c-1-1.68-2-3.31-3.09-4.92,0-.25-.07-.49-.11-.74-.07-.43-.13-.85-.19-1.28-.14-.88-.29-1.75-.44-2.62-.32-1.91-.71-3.81-1-5.72,0-.09-.15-.09-.14,0,.28,1.89.47,3.79.73,5.68.13.92.25,1.85.39,2.78.06.33.11.67.16,1a97.38,97.38,0,0,0-6.84-8.87c-.33-.38-.67-.76-1-1.13a2.15,2.15,0,0,0-.13-.32l-.3-.79-.6-1.65c-.38-1.08-.73-2.18-1-3.29a.07.07,0,1,0-.13,0c.28,1.14.57,2.27.9,3.39.16.54.34,1.08.53,1.61l.1.27c-1.77-1.93-3.61-3.79-5.47-5.62-.07-.07-.17,0-.1.1a100.1,100.1,0,0,1,9.8,12,7.77,7.77,0,0,0-1-.26c-1.06-.21-2.14-.36-3.21-.5-2.26-.28-4.5-.57-6.75-.92a.07.07,0,0,0,0,.14c2.14.42,4.27.9,6.39,1.39,1,.23,2,.43,3,.63a18.1,18.1,0,0,1,2.42.69c.23.32.46.63.68,1,1,1.47,2,3,2.94,4.5l-1.41-.28c-1.07-.2-2.14-.4-3.21-.57-2.11-.35-4.22-.72-6.31-1.19a.07.07,0,0,0,0,.14c2.11.49,4.21,1.07,6.31,1.63,1,.27,2,.52,3,.74l1.54.34a3.79,3.79,0,0,0,.62.1c2,3.28,3.92,6.63,5.67,10,.78,1.51,1.52,3,2.24,4.56s1.37,3.17,2,4.76C93.84,310.42,94.34,310.29,94.23,309.94Z" style="fill: rgb(38, 50, 56); transform-origin: 81.0079px 290.641px;" id="ellfgmpy6lfub" class="animable"></path><path d="M80.08,278.16c-.27-1.32-.55-2.63-.84-4,0-.09-.15,0-.13,0,.26,1.3.51,2.6.74,3.9a39,39,0,0,0,.79,3.87s0,0,0,0A27.91,27.91,0,0,0,80.08,278.16Z" style="fill: rgb(38, 50, 56); transform-origin: 79.8741px 278.025px;" id="elzww54d77m1f" class="animable"></path><path d="M72,277.78c-.64-.32-1.32-.58-2-.84l-1-.41-.53-.22a2.31,2.31,0,0,1-.58-.25c-.11-.08-.17.1-.07.12a2.71,2.71,0,0,1,.59.24l.52.24,1,.45a21.29,21.29,0,0,0,2,.81C72,277.94,72.09,277.81,72,277.78Z" style="fill: rgb(38, 50, 56); transform-origin: 69.9034px 276.981px;" id="eld2dztsbsm" class="animable"></path><path d="M101.9,285.42s8.37-15.63,21.1-18.05,20.53,10.68,20.53,10.68-9.29,11.86-21,13.93S101.9,285.42,101.9,285.42Z" style="fill: rgb(121, 196, 176); transform-origin: 122.715px 279.686px;" id="el0t4dp4h2is4h" class="animable"></path><path d="M131.53,274.38a34.07,34.07,0,0,0-10,.12l.57-.31,2.82-1.45a66.06,66.06,0,0,1,6-2.92c.09,0,0-.18-.06-.13-2,.92-4.06,1.7-6.05,2.62-1,.46-2,.94-3,1.45-.63.34-1.32.65-1.94,1.05a34.64,34.64,0,0,0-8.09,2.69l1.59-1.74c1.19-1.29,2.35-2.66,3.66-3.84.07-.06,0-.16-.11-.1-1.33,1.21-2.74,2.33-4,3.59-.63.61-1.23,1.24-1.81,1.89-.29.33-.58.66-.86,1a33.49,33.49,0,0,0-17.07,23.05c0,.09.11.14.13.05a38.46,38.46,0,0,1,9.36-15.84,36.76,36.76,0,0,1,17.06-9.87,37.4,37.4,0,0,1,11.78-1.07C131.68,274.64,131.69,274.4,131.53,274.38Z" style="fill: rgb(38, 50, 56); transform-origin: 112.412px 285.564px;" id="elau51p0gxxl" class="animable"></path><g id="elyctx23qywa"><path d="M143.53,278.05s-9.29,11.86-21,13.93c-8.91,1.58-16.24-3.07-19.22-5.36l-.64-1.05s6-5.08,17.43-8S143.53,278.05,143.53,278.05Z" style="opacity: 0.1; transform-origin: 123.1px 284.343px;" class="animable"></path></g><path d="M124.14,268.8a31.45,31.45,0,0,0-2.83,1.87,18.09,18.09,0,0,0-2.46,2.25c-.06.07,0,.16.11.1.85-.73,1.7-1.47,2.58-2.16a26.72,26.72,0,0,1,2.67-1.94C124.29,268.88,124.22,268.75,124.14,268.8Z" style="fill: rgb(38, 50, 56); transform-origin: 121.536px 270.914px;" id="elwilak6h9ahg" class="animable"></path><path d="M131.13,271.45c-.48.2-1,.37-1.43.56l-1.42.59c-.1,0-.05.21.05.16l1.42-.57c.48-.19.94-.41,1.42-.6C131.25,271.55,131.21,271.41,131.13,271.45Z" style="fill: rgb(38, 50, 56); transform-origin: 129.72px 272.105px;" id="elsgyizbtt7gm" class="animable"></path><path d="M100.23,305.1s2.23,15.51,13.9,20.93S140,326,140,326,134.41,292.48,100.23,305.1Z" style="fill: rgb(121, 196, 176); transform-origin: 120.115px 315.345px;" id="elk9mjv37v20f" class="animable"></path><path d="M132,316c-1.08-.13-2.15-.31-3.21-.51l-1.57-.29-.82-.17c-.31-.29-.62-.59-.94-.87a46.93,46.93,0,0,0-7.13-5.17,40.17,40.17,0,0,0-4.28-2.2h.22l3.84.17c2.56.12,5.12.18,7.68.34.09,0,.09-.14,0-.14-2.56-.18-5.12-.46-7.68-.68l-3.73-.33-1.92-.17-.49-.05c-.67-.25-1.34-.48-2-.69a18.16,18.16,0,0,0-9.88-.55c-2.93.75-5.86,2.67-6.62,5.77,0,.1.14.18.19.07,1.09-2.58,4-3.88,6.55-4.42a15.86,15.86,0,0,1,5.28-.11,12.07,12.07,0,0,0,.59,2.35c.32,1.09.64,2.18,1,3.27.66,2.18,1.39,4.34,2,6.52a.07.07,0,1,0,.13,0c-.54-2.18-1-4.37-1.52-6.56-.26-1.07-.53-2.13-.79-3.2a17.26,17.26,0,0,0-.59-2.21,27.83,27.83,0,0,1,3,.72,44.56,44.56,0,0,1,5.28,1.93c.17,1.11.42,2.2.67,3.29.32,1.37.68,2.73,1.11,4.07a.07.07,0,0,0,.13,0,2.38,2.38,0,0,0,0-.26h0c-.26-1.27-.54-2.53-.81-3.8-.22-1-.41-2.05-.64-3.07a47.07,47.07,0,0,1,4.25,2.16c0,.31.11.64.16.92.08.54.18,1.07.27,1.6.22,1.19.46,2.38.75,3.57a56.64,56.64,0,0,0,2,6.74.1.1,0,0,0,0,.09l.07.08c0,.06.13,0,.12-.07-.54-2.3-1.16-4.58-1.66-6.89-.25-1.15-.51-2.3-.74-3.46l-.33-1.73c0-.17-.05-.34-.08-.52a49.27,49.27,0,0,1,11.49,9.37c.08.09.25,0,.17-.14a42.78,42.78,0,0,0-2.78-3.39c-.58-.63-1.19-1.23-1.81-1.83l.19,0c.55.09,1.09.17,1.64.24,1.08.15,2.16.25,3.24.37C132,316.09,132.06,316,132,316Z" style="fill: rgb(38, 50, 56); transform-origin: 112.748px 314.243px;" id="elwjxn74ar11" class="animable"></path><path d="M123.77,321.2h0c0-.13,0-.27-.06-.4a4.25,4.25,0,0,1-.14-.51h0c-.24-1-.44-2.08-.63-3.13,0-.07-.13-.05-.12,0a12.56,12.56,0,0,0,.88,4.05s.09,0,.08,0Z" style="fill: rgb(38, 50, 56); transform-origin: 123.3px 319.162px;" id="ely418cuuzr1" class="animable"></path><path d="M114,321s0-.06-.07-.06c-.32-1.37-.64-2.75-.92-4.13-.15-.73-.3-1.45-.44-2.18-.08-.4-.15-.79-.22-1.18a3.48,3.48,0,0,0-.25-1,.07.07,0,0,0-.13,0,6.75,6.75,0,0,0,.29,2.08c.14.76.29,1.52.46,2.27.34,1.53.72,3.05,1.15,4.56a.08.08,0,0,0,.16,0Z" style="fill: rgb(38, 50, 56); transform-origin: 112.999px 316.923px;" id="elxsfuhg0dq5q" class="animable"></path><path d="M130.91,311.48c-2.13-.29-4.26-.6-6.4-.86-.09,0-.12.13,0,.14,2.13.31,4.26.58,6.39.86C131,311.63,131,311.49,130.91,311.48Z" style="fill: rgb(38, 50, 56); transform-origin: 127.704px 311.12px;" id="el565f4q85fv" class="animable"></path><path d="M94.25,268.73s-7.13-31.31,26.5-44C120.75,224.75,130.07,266,94.25,268.73Z" style="fill: rgb(121, 196, 176); transform-origin: 107.73px 246.73px;" id="elklcbwac1y6" class="animable"></path><path d="M101.51,251l.36-.22,1.91-1.06,3.9-2.18c2.56-1.44,5.1-2.93,7.68-4.34.08,0,0-.16-.07-.12-2.59,1.41-5.23,2.73-7.83,4.1l-3.86,2L102,250c1.12-2.12,2.32-4.21,3.64-6.22,1.75-2.68,3.68-5.23,5.69-7.73a.12.12,0,0,0-.17-.16,53.21,53.21,0,0,0-7.78,9.53c0-.11,0-.22,0-.32,0-.78.06-1.56.07-2.34,0-1.53,0-3.06,0-4.59,0-.09-.14-.08-.15,0-.06,1.5-.24,3-.33,4.5,0,.76-.07,1.5-.09,2.26,0,.4,0,.86,0,1.31-.69,1.1-1.36,2.22-2,3.35a57.93,57.93,0,0,0-3,6.31c0-.78-.08-1.56-.13-2.34-.1-1.71-.31-3.42-.38-5.14a.07.07,0,1,0-.14,0c0,1.71,0,3.43,0,5.14,0,.86.06,1.72.11,2.57l.06,1a57.53,57.53,0,0,0-2.54,8.6,94.37,94.37,0,0,0-1.25,9.45s0,0,0,0a50.77,50.77,0,0,1,1.78-8.43c.42-1.47.86-2.94,1.33-4.4,1.4-.66,2.74-1.48,4.09-2.23s2.82-1.54,4.22-2.31c2.81-1.54,5.61-3.11,8.5-4.47.09,0,0-.16-.07-.12-2.93,1.33-5.89,2.59-8.77,4-1.43.72-2.84,1.49-4.24,2.27-1.17.66-2.37,1.32-3.48,2.08.32-1,.66-1.95,1-2.91C99.08,256.08,100.23,253.49,101.51,251Z" style="fill: rgb(38, 50, 56); transform-origin: 104.502px 255.525px;" id="ely4powcsv37j" class="animable"></path><path d="M98.68,243.81a.08.08,0,0,0-.15,0c.13,1.78.19,3.57.37,5.35,0,.1.17.1.16,0C99,247.38,98.81,245.6,98.68,243.81Z" style="fill: rgb(38, 50, 56); transform-origin: 98.7952px 246.496px;" id="eli357z0blka" class="animable"></path><path d="M114.8,249.79c-2.1.85-4.22,1.66-6.32,2.53-.06,0,0,.12,0,.1,2.13-.8,4.22-1.66,6.34-2.49C114.93,249.9,114.89,249.76,114.8,249.79Z" style="fill: rgb(38, 50, 56); transform-origin: 111.67px 251.104px;" id="el6sdf23rj7jh" class="animable"></path><path d="M118,235.35a56.31,56.31,0,0,0-6,3.21.09.09,0,0,0,.09.16c2-1.14,3.94-2.24,6-3.24C118.16,235.44,118.08,235.32,118,235.35Z" style="fill: rgb(38, 50, 56); transform-origin: 115.035px 237.038px;" id="elld8ng8i7tad" class="animable"></path><rect x="68.98" y="336.43" width="48.51" height="51.13" style="fill: rgb(69, 90, 100); transform-origin: 93.235px 361.995px;" id="eli0tp1bjz7tf" class="animable"></rect><rect x="65.65" y="354.52" width="2.48" height="87.58" style="fill: rgb(38, 50, 56); transform-origin: 66.89px 398.31px;" id="el13r6bn1pux9i" class="animable"></rect><rect x="118.09" y="354.52" width="2.48" height="87.58" style="fill: rgb(38, 50, 56); transform-origin: 119.33px 398.31px;" id="elry1umhw6ja8" class="animable"></rect><rect x="93.19" y="354.52" width="2.48" height="87.58" style="fill: rgb(38, 50, 56); transform-origin: 94.43px 398.31px;" id="elhr4ks2m7eqf" class="animable"></rect><rect x="66.89" y="384.28" width="52.44" height="7.08" style="fill: rgb(38, 50, 56); transform-origin: 93.11px 387.82px;" id="el99lk0x8tc48" class="animable"></rect></g><g id="freepik--Device--inject-45" class="animable" style="transform-origin: 375px 261.84px;"><rect x="68.63" y="419.29" width="612.74" height="22.32" style="fill: rgb(199, 199, 199); transform-origin: 375px 430.45px;" id="el459r0qkvu7l" class="animable"></rect><rect x="122.94" y="82.07" width="504.11" height="337.22" style="fill: rgb(219, 219, 219); transform-origin: 374.995px 250.68px;" id="elmaiy86ku6li" class="animable"></rect><rect x="126.61" y="86.18" width="496.79" height="328.99" style="fill: rgb(38, 50, 56); transform-origin: 375.005px 250.675px;" id="elewnptyku8na" class="animable"></rect><rect x="148.6" y="107.33" width="452.79" height="286.69" style="fill: rgb(255, 255, 255); transform-origin: 374.995px 250.675px;" id="elmsxdn1u8qw" class="animable"></rect><g id="elivl313r3go"><path d="M601.4,245.81V394H148.6V176.7c20,4.13,34.88,10.07,45.2,17.29,32.34,22.64,72.36,72.3,159.49,88C445.91,298.67,504.07,244.05,601.4,245.81Z" style="fill: rgb(121, 196, 176); opacity: 0.1; transform-origin: 375px 285.35px;" class="animable"></path></g><g id="elcs8i8mm2pk"><path d="M601.4,337.25V394H148.6V358.58c11.42-5,25.44-8.9,43-11.2,86.91-11.3,179.28,21.23,243.8,27.59C489.22,380.29,548,370.71,601.4,337.25Z" style="fill: rgb(121, 196, 176); opacity: 0.2; transform-origin: 375px 365.625px;" class="animable"></path></g><rect x="320.95" y="284.47" width="108.11" height="15.67" style="fill: rgb(235, 235, 235); transform-origin: 375.005px 292.305px;" id="el1oafami9tsg" class="animable"></rect><path d="M333,289.68a12.15,12.15,0,0,1-2.26,3,12.32,12.32,0,0,1-3,2.27,12.34,12.34,0,0,1,2.26-3A12.64,12.64,0,0,1,333,289.68Z" style="fill: rgb(38, 50, 56); transform-origin: 330.37px 292.315px;" id="eld2tt15fqj8" class="animable"></path><path d="M327.77,289.68a12.85,12.85,0,0,1,3,2.27,12.34,12.34,0,0,1,2.26,3,14,14,0,0,1-5.23-5.24Z" style="fill: rgb(38, 50, 56); transform-origin: 330.4px 292.315px;" id="el4uodmdie929" class="animable"></path><path d="M334.08,292.3a12.37,12.37,0,0,1-3.7.5,12.13,12.13,0,0,1-3.7-.5,12.45,12.45,0,0,1,3.7-.5A12.69,12.69,0,0,1,334.08,292.3Z" style="fill: rgb(38, 50, 56); transform-origin: 330.38px 292.3px;" id="elwgyt8ctdeiq" class="animable"></path><path d="M330.38,288.6a13.94,13.94,0,0,1,0,7.4,13.94,13.94,0,0,1,0-7.4Z" style="fill: rgb(38, 50, 56); transform-origin: 330.38px 292.3px;" id="eliu8bua9xpt8" class="animable"></path><path d="M345.76,289.68a14,14,0,0,1-5.23,5.24,12.34,12.34,0,0,1,2.26-3A12.85,12.85,0,0,1,345.76,289.68Z" style="fill: rgb(38, 50, 56); transform-origin: 343.145px 292.3px;" id="el2k2o9xo5y31" class="animable"></path><path d="M340.53,289.68a12.64,12.64,0,0,1,3,2.27,12.34,12.34,0,0,1,2.26,3,12.32,12.32,0,0,1-3-2.27A12.15,12.15,0,0,1,340.53,289.68Z" style="fill: rgb(38, 50, 56); transform-origin: 343.16px 292.315px;" id="elqk2ky8a28oa" class="animable"></path><path d="M346.85,292.3a12.45,12.45,0,0,1-3.7.5,12.05,12.05,0,0,1-3.7-.5,12.37,12.37,0,0,1,3.7-.5A12.79,12.79,0,0,1,346.85,292.3Z" style="fill: rgb(38, 50, 56); transform-origin: 343.15px 292.3px;" id="elofjrgpqurk" class="animable"></path><path d="M343.15,288.6a13.94,13.94,0,0,1,0,7.4,13.94,13.94,0,0,1,0-7.4Z" style="fill: rgb(38, 50, 56); transform-origin: 343.15px 292.3px;" id="elbebd7xshox" class="animable"></path><path d="M358.53,289.68a12.44,12.44,0,0,1-2.27,3,11.94,11.94,0,0,1-3,2.27,14.12,14.12,0,0,1,5.24-5.24Z" style="fill: rgb(38, 50, 56); transform-origin: 355.895px 292.315px;" id="elvv1nw62csy" class="animable"></path><path d="M353.29,289.68a12.44,12.44,0,0,1,3,2.27,12.13,12.13,0,0,1,2.27,3,11.94,11.94,0,0,1-3-2.27A12.44,12.44,0,0,1,353.29,289.68Z" style="fill: rgb(38, 50, 56); transform-origin: 355.925px 292.315px;" id="elqswa86gclqe" class="animable"></path><path d="M359.61,292.3a12.41,12.41,0,0,1-3.7.5,12.09,12.09,0,0,1-3.7-.5,12.41,12.41,0,0,1,3.7-.5A12.74,12.74,0,0,1,359.61,292.3Z" style="fill: rgb(38, 50, 56); transform-origin: 355.91px 292.3px;" id="elvj0qfsf4zrh" class="animable"></path><path d="M355.91,288.6a12.74,12.74,0,0,1,.5,3.7,12.09,12.09,0,0,1-.5,3.7,12.41,12.41,0,0,1-.5-3.7A12.74,12.74,0,0,1,355.91,288.6Z" style="fill: rgb(38, 50, 56); transform-origin: 355.91px 292.3px;" id="el5bgoridjpj2" class="animable"></path><path d="M371.29,289.68a14,14,0,0,1-5.23,5.24,12.34,12.34,0,0,1,2.26-3A12.64,12.64,0,0,1,371.29,289.68Z" style="fill: rgb(38, 50, 56); transform-origin: 368.675px 292.3px;" id="eldezmkb577j6" class="animable"></path><path d="M366.06,289.68a12.85,12.85,0,0,1,3,2.27,12.34,12.34,0,0,1,2.26,3,14,14,0,0,1-5.23-5.24Z" style="fill: rgb(38, 50, 56); transform-origin: 368.69px 292.315px;" id="elr5ddrbwub0k" class="animable"></path><path d="M372.37,292.3a12.37,12.37,0,0,1-3.7.5,12.13,12.13,0,0,1-3.7-.5,12.45,12.45,0,0,1,3.7-.5A12.69,12.69,0,0,1,372.37,292.3Z" style="fill: rgb(38, 50, 56); transform-origin: 368.67px 292.3px;" id="elgh9usehrg4i" class="animable"></path><path d="M368.67,288.6a13.94,13.94,0,0,1,0,7.4,13.94,13.94,0,0,1,0-7.4Z" style="fill: rgb(38, 50, 56); transform-origin: 368.67px 292.3px;" id="eljkkaj2we59j" class="animable"></path><path d="M446.7,292.3a6,6,0,1,1-6-6A6,6,0,0,1,446.7,292.3Z" style="fill: rgb(121, 196, 176); transform-origin: 440.7px 292.3px;" id="elpbtda96t4x" class="animable"></path><polygon points="439.57 295.52 438.87 294.81 441.39 292.31 438.87 289.79 439.57 289.08 442.81 292.31 439.57 295.52" style="fill: rgb(255, 255, 255); transform-origin: 440.84px 292.3px;" id="elw832hzxuo3" class="animable"></polygon><path d="M338.72,275.44c6-.21,12.1-.31,18.14-.39S369,275,375,274.94s12.09,0,18.14.11l9.07.14c3,.08,6,.13,9.07.25-3,.11-6,.16-9.07.24l-9.07.14c-6.05.08-12.09.08-18.14.12s-12.09,0-18.14-.12S344.77,275.64,338.72,275.44Z" style="fill: rgb(38, 50, 56); transform-origin: 375px 275.436px;" id="el9g0i804tlc" class="animable"></path></g><g id="freepik--character-2--inject-45" class="animable" style="transform-origin: 375px 213.96px;"><circle cx="375" cy="213.96" r="43.65" style="fill: rgb(235, 235, 235); transform-origin: 375px 213.96px;" id="elg455s0efs2j" class="animable"></circle><path d="M390.55,254.76c-.57.23-1.15.43-1.74.62a.11.11,0,0,1-.07,0,43.23,43.23,0,0,1-11.2,2.13c-.21-.83-.4-1.66-.59-2.48s-.36-1.71-.47-2.48a18.46,18.46,0,0,1-.23-3.46.34.34,0,0,1,0-.14q0-.21,0-.39c0-.13,0-.25,0-.37a6.13,6.13,0,0,1,.4-1.6,1.59,1.59,0,0,1,.12-.27l0-.07a2.59,2.59,0,0,1,2.84-1.46,5.62,5.62,0,0,1,1.7.56,7.1,7.1,0,0,1,1,.55,27.15,27.15,0,0,1,6.89,7.1C389.72,253.61,390.13,254.19,390.55,254.76Z" style="fill: rgb(173, 99, 89); transform-origin: 383.396px 251.127px;" id="elwxo0w83wctb" class="animable"></path><path d="M391.11,254.55c-.19.07-.37.15-.56.21-.57.23-1.15.43-1.74.62a.11.11,0,0,1-.07,0,43.23,43.23,0,0,1-11.2,2.13l-.41,0c-.09-.46-.19-.9-.27-1.33-.18-.91-.32-1.76-.42-2.56-.06-.42-.11-.82-.14-1.2a20.15,20.15,0,0,1-.09-2.84s0,0,0-.06a9.93,9.93,0,0,1,.08-1c0-.13,0-.25,0-.37a7.87,7.87,0,0,1,.21-.95c0-.17.09-.33.14-.48a1.09,1.09,0,0,1,.05-.17,1.59,1.59,0,0,1,.12-.27l0-.07a4.38,4.38,0,0,1,.35-.65,3.79,3.79,0,0,1,.34-.43l.17-.17a1.64,1.64,0,0,1,.25-.21,2.53,2.53,0,0,1,.94-.44l.35-.07a3.23,3.23,0,0,1,.82,0,6.07,6.07,0,0,1,2.34.83,21,21,0,0,1,6.08,5.9Z" style="fill: rgb(121, 196, 176); transform-origin: 383.652px 250.862px;" id="el9aolzjp1kyp" class="animable"></path><g id="el415g428d3j8"><path d="M388.81,255.38a.11.11,0,0,1-.07,0,43.23,43.23,0,0,1-11.2,2.13l-.41,0c-.09-.46-.19-.9-.27-1.33-.18-.91-.32-1.76-.42-2.56-.06-.41-.1-.81-.13-1.19a18.94,18.94,0,0,1-.1-2.85s0,0,0-.06,0-.31,0-.46a.34.34,0,0,1,0-.14,9.84,9.84,0,0,1,.28-1.71c0-.17.09-.33.14-.48a4.49,4.49,0,0,1,.17-.44l0-.07a4.38,4.38,0,0,1,.35-.65,3.79,3.79,0,0,1,.34-.43l.17-.17a1.64,1.64,0,0,1,.25-.21,2.53,2.53,0,0,1,.94-.44l.35-.07.44.51,2.55,3c1.9,2.19,4,4.6,6.17,7.16C388.56,255.09,388.68,255.24,388.81,255.38Z" style="opacity: 0.1; transform-origin: 382.502px 250.88px;" class="animable"></path></g><path d="M388.74,255.41a43.23,43.23,0,0,1-11.2,2.13l-.41,0c-.71,0-1.42.05-2.13.05a43.69,43.69,0,0,1-7.89-.71c-.14,0-.29-.05-.43-.09a43.22,43.22,0,0,1-9.46-3,47.06,47.06,0,0,1,5.75-7.44q.75-.75,1.5-1.38a17,17,0,0,1,2.36-1.69,13.38,13.38,0,0,1,1.9-.94c4.08-1.62,7.92-.6,11.37,1.92.45.33.89.68,1.32,1.06l.19.16a8.53,8.53,0,0,1,.77.9c1.19,1.51,3.49,4.7,6.06,8.51Z" style="fill: rgb(121, 196, 176); transform-origin: 372.98px 249.574px;" id="el62woobsfwy" class="animable"></path><path d="M370.42,247.15a42.59,42.59,0,0,1-3.74,9.67,43.22,43.22,0,0,1-9.46-3c-.87-.39-1.74-.81-2.58-1.26a74.26,74.26,0,0,1,6.1-5.09c1.18-.86,2.48-1.74,3.73-2.47a10.39,10.39,0,0,1,4.24-1.64C370.17,243.33,371,244.31,370.42,247.15Z" style="fill: rgb(173, 99, 89); transform-origin: 362.623px 250.09px;" id="el0m577jon6dk" class="animable"></path><path d="M370.63,247.42a44.11,44.11,0,0,1-2.6,7.38c-.3.69-.6,1.39-.92,2.11-.14,0-.29-.05-.43-.09a43.22,43.22,0,0,1-9.46-3c-.87-.39-1.74-.81-2.58-1.26-.22-.11-.43-.23-.64-.35,1.21-1.08,2.34-2,3.35-2.81,4.22-3.26,7.32-5.22,9.48-6.09a7.18,7.18,0,0,1,1.89-.51C370.85,242.62,371.32,244.34,370.63,247.42Z" style="fill: rgb(121, 196, 176); transform-origin: 362.463px 249.849px;" id="el9mgtbofhp6q" class="animable"></path><path d="M368.74,244.46c.27,1.25,6.1,9.41,11.79,9.23,1.86-.07,2-10.21,2-10.21l.18-.74,2.49-10.46L373,224.2l-1.77-1.07s-.49,2.91-1.07,6.53c0,.17-.06.34-.08.52s-.08.39-.11.59l-.27,1.64c-.06.42-.12.83-.17,1.27s-.12.88-.18,1.32A68.34,68.34,0,0,0,368.74,244.46Z" style="fill: rgb(173, 99, 89); transform-origin: 376.97px 238.411px;" id="elux95spen2la" class="animable"></path><path d="M370.12,229.66a21.54,21.54,0,0,0,12.55,13.08l2.49-10.46L373,224.2l-1.77-1.07S370.7,226,370.12,229.66Z" style="fill: rgb(38, 50, 56); transform-origin: 377.64px 232.935px;" id="el7bgv1x3w5k6" class="animable"></path><path d="M385.12,195.63a1.5,1.5,0,0,0,0-.2,4.09,4.09,0,0,0-1.55-2.48,3.93,3.93,0,0,0-1.08-.6l-.3-.12.08-.07a3,3,0,0,0,.62-.67,3.31,3.31,0,0,0,.62-1.75,3.39,3.39,0,0,0-1.79-3.25,2.3,2.3,0,0,0,.39-2.45,3.86,3.86,0,0,0-2.22-1.95,2.76,2.76,0,0,0-.83-2.5,2.49,2.49,0,0,0-3.23,0,6.88,6.88,0,0,0-3.61-3.3,3.58,3.58,0,0,0-3.82,1,4.93,4.93,0,0,0-7.38-.35,3.48,3.48,0,0,0-3.46-.24,5.2,5.2,0,0,0-2,1.51,2.6,2.6,0,0,0-3,.33,3.42,3.42,0,0,0-1.05,2.74,2,2,0,0,1-.62.63,4.53,4.53,0,0,0-2.08,3.73,3.09,3.09,0,0,0-2,4.19,3.47,3.47,0,0,0-1,4.77A5,5,0,0,0,344,198.3a2.94,2.94,0,0,0,1.46,2.87,1.76,1.76,0,0,0,.11,2.35,4.51,4.51,0,0,0,.72.66,3.93,3.93,0,0,1,1,.77,2.82,2.82,0,0,1,.2,1.19,3.71,3.71,0,0,0,.21.81,4.57,4.57,0,0,0,5,2.87,3.68,3.68,0,0,0,3,2.76,7.87,7.87,0,0,0,1.36.22,2.1,2.1,0,0,1,1.16.37c.21.17.38.39.6.56l.22.16a3.44,3.44,0,0,0,2.26.31s0,0,0,0a3.89,3.89,0,0,0,.12.49,3.76,3.76,0,0,0,2.2,2.46,2.6,2.6,0,0,0,.36.13l.3.08a3.83,3.83,0,0,0,.59.1,4.92,4.92,0,0,0,2.92-.67,3.63,3.63,0,0,0,.66-.47h0a4.6,4.6,0,0,0,.72-.74,4.55,4.55,0,0,0,2.48.83,4.16,4.16,0,0,0,2.11-.5,4,4,0,0,0,1.43-1.35,4.41,4.41,0,0,0,.77-2.63,4.24,4.24,0,0,0,3.44.56,3.55,3.55,0,0,0,1.33-.75,2.56,2.56,0,0,0,.39-.42,3.78,3.78,0,0,0,.09-4.53h0a3.83,3.83,0,0,1-.66,4.69,3.44,3.44,0,0,1-3.8.46,4.69,4.69,0,0,0,3.55-1.2,3.63,3.63,0,0,0,.86-3.94,5.37,5.37,0,0,0,3.39-3.42,3.66,3.66,0,0,0-1.21-3.8,4.26,4.26,0,0,0,1.69-2.14,3.12,3.12,0,0,0,.22-.9.82.82,0,0,0,0-.27.06.06,0,0,0,0-.07A2.17,2.17,0,0,0,385.12,195.63Zm-29.7-17.22s-.38,0-.56,0a3.72,3.72,0,0,0-1,.21,3.55,3.55,0,0,0-1.66,1.25,3.85,3.85,0,0,0-.43.83l0,.11a3.37,3.37,0,0,1,.7-1.68,2.74,2.74,0,0,1,3.07-.82Zm23.47,1.36a2.27,2.27,0,0,1,.67,2.2h0a3,3,0,0,0-.67-1.46,2.64,2.64,0,0,0-2.94-.74.56.56,0,0,1-.05-.08A2.34,2.34,0,0,1,378.89,179.77ZM364.7,217.16a4.51,4.51,0,0,1-.53-.07l-.29-.08a2.82,2.82,0,0,1-.48-.19,3.92,3.92,0,0,1-2-2.42,2,2,0,0,1-.08-.22h0l.07.14a4.84,4.84,0,0,0,1.81,1.91,4.73,4.73,0,0,0,.64.31l.29.1a3,3,0,0,0,.43.12,4.72,4.72,0,0,0,3-.3A5.43,5.43,0,0,1,364.7,217.16Z" style="fill: rgb(38, 50, 56); transform-origin: 364.622px 196.462px;" id="elmf6ak3l40so" class="animable"></path><path d="M398.86,215.39c3.89,18.45-6.73,22.87-10.71,23.7-3.62.76-16,2.88-21.79-15.08s1.58-25.6,9.75-27.77S395,196.93,398.86,215.39Z" style="fill: rgb(173, 99, 89); transform-origin: 381.997px 217.6px;" id="el3btjoy0aua9" class="animable"></path><path d="M394.31,213a11.29,11.29,0,0,1-1.3,0,2.08,2.08,0,0,1-1.32-.28.67.67,0,0,1-.15-.81,1.64,1.64,0,0,1,1.54-.68,2.44,2.44,0,0,1,1.66.56A.72.72,0,0,1,394.31,213Z" style="fill: rgb(38, 50, 56); transform-origin: 393.201px 212.118px;" id="el85htcj87o0m" class="animable"></path><path d="M381.26,215.72a12.82,12.82,0,0,0,1.21-.5,2.14,2.14,0,0,0,1.13-.75.66.66,0,0,0-.16-.8,1.65,1.65,0,0,0-1.68-.08,2.47,2.47,0,0,0-1.35,1.13A.72.72,0,0,0,381.26,215.72Z" style="fill: rgb(38, 50, 56); transform-origin: 382.006px 214.573px;" id="elfsce8l4gqw" class="animable"></path><path d="M385.05,219.72c0-.05-.08.08-.07.13.31,1.25.45,2.73-.6,3.38,0,0,0,.09,0,.07C385.75,222.81,385.54,220.85,385.05,219.72Z" style="fill: rgb(38, 50, 56); transform-origin: 384.902px 221.506px;" id="el06d95ykitxrx" class="animable"></path><path d="M383.65,218.64c-2,.28-1.35,4.36.55,4.11S385.37,218.41,383.65,218.64Z" style="fill: rgb(38, 50, 56); transform-origin: 383.876px 220.696px;" id="elwa9wg2nvw7m" class="animable"></path><path d="M382.89,219c-.32.29-.6.76-1,.87s-.94-.23-1.34-.58c0,0-.07,0-.06.06.12.78.56,1.53,1.42,1.51s1.22-.82,1.28-1.64C383.18,219.07,383,218.88,382.89,219Z" style="fill: rgb(38, 50, 56); transform-origin: 381.84px 219.911px;" id="elnwmogvonqxc" class="animable"></path><path d="M392.37,217.85s.11.05.12.1c.17,1.27.57,2.7,1.79,2.94,0,0,0,.07,0,.07C392.85,221,392.33,219.09,392.37,217.85Z" style="fill: rgb(38, 50, 56); transform-origin: 393.324px 219.405px;" id="elk72lqd1zrfg" class="animable"></path><path d="M393.29,216.34c2-.49,2.84,3.58,1,4S391.6,216.75,393.29,216.34Z" style="fill: rgb(38, 50, 56); transform-origin: 393.844px 218.335px;" id="ely2crkda8st" class="animable"></path><path d="M394.19,216.44c.37.15.76.47,1.15.42s.69-.57.89-1.05c0-.05.06,0,.07,0,.18.77.09,1.63-.63,1.93s-1.29-.29-1.63-1C394,216.62,394,216.38,394.19,216.44Z" style="fill: rgb(38, 50, 56); transform-origin: 395.199px 216.804px;" id="elfzhqf8ltw2g" class="animable"></path><path d="M387.6,229.51c.34.26.7.63,1.17.61a3.46,3.46,0,0,0,1.33-.49s.08,0,.06.06a1.73,1.73,0,0,1-1.53.89,1.36,1.36,0,0,1-1.14-1C387.46,229.51,387.55,229.47,387.6,229.51Z" style="fill: rgb(38, 50, 56); transform-origin: 388.824px 230.037px;" id="elwcvzfh3890h" class="animable"></path><path d="M392,224s.61,1.84.77,2.73c0,.08-.19.16-.49.24h0a4.28,4.28,0,0,1-4.4-.82A.09.09,0,0,1,388,226a6.48,6.48,0,0,0,4.07.4c0-.26-1.15-3.12-1-3.15a8,8,0,0,1,2.1.08c-1.15-3.86-2.91-7.51-4-11.38a.12.12,0,0,1,.22-.1,65.4,65.4,0,0,1,4.84,12.08C394.38,224.39,392.43,224.06,392,224Z" style="fill: rgb(38, 50, 56); transform-origin: 391.041px 219.516px;" id="ela4fhgkxz1hm" class="animable"></path><path d="M391.57,226.87a4.49,4.49,0,0,1-1.52,1.74,2,2,0,0,1-1.2.31c-.93-.06-1.11-.87-1.08-1.59a4.82,4.82,0,0,1,.19-1.14A5.91,5.91,0,0,0,391.57,226.87Z" style="fill: rgb(38, 50, 56); transform-origin: 389.668px 227.557px;" id="el2epow1bg1am" class="animable"></path><path d="M390.05,228.61a2,2,0,0,1-1.2.31c-.93-.06-1.11-.87-1.08-1.59A2.1,2.1,0,0,1,390.05,228.61Z" style="fill: rgb(255, 155, 188); transform-origin: 388.908px 228.113px;" id="el17bn00rkz7di" class="animable"></path><path d="M367.52,223.36c3.49.31,4.11-7.68,4.11-7.68s14.73-3,15.56-15.14a20.44,20.44,0,0,0,10.69,10.81s-1-13.21-11.55-15.41c0,0-13.18-4.29-20.14,6.3S365.18,223.14,367.52,223.36Z" style="fill: rgb(38, 50, 56); transform-origin: 380.399px 209.225px;" id="el60id4afnceb" class="animable"></path><path d="M387.21,199.64a13,13,0,0,1-.47,5.53,13.52,13.52,0,0,1-2.62,5,11.94,11.94,0,0,1-1,1l-.49.5c-.18.16-.37.3-.56.45-.37.28-.73.58-1.12.85s-.8.48-1.21.71l-.61.35-.65.27-1.28.55c-.89.28-1.79.51-2.68.73.84-.4,1.7-.71,2.52-1.11l1.2-.64.6-.32c.2-.12.38-.25.57-.38l1.12-.76c.35-.27.69-.57,1-.86l.52-.43.46-.49a10.57,10.57,0,0,0,.9-1,15.61,15.61,0,0,0,2.66-4.64,16.57,16.57,0,0,0,.74-2.61A15.45,15.45,0,0,0,387.21,199.64Z" style="fill: rgb(38, 50, 56); transform-origin: 380.92px 207.61px;" id="el6sfxx8cqppq" class="animable"></path><path d="M368.36,230.07a3.78,3.78,0,0,0,.9.12,3,3,0,0,0,.88-.08,2.63,2.63,0,0,0,1-.48,3.23,3.23,0,0,0,.64-.64,3.42,3.42,0,0,0,.58-1.13L370.76,223s-4.8-5.35-7.27-3.57S365.11,229.3,368.36,230.07Z" style="fill: rgb(173, 99, 89); transform-origin: 367.547px 224.631px;" id="elp9tg8lxekuh" class="animable"></path><path d="M364.72,221.7c-.05,0-.05.08,0,.09,2.29.62,3.69,2.5,4.75,4.5a1.77,1.77,0,0,0-2.68-.16c0,.05,0,.13.08.11a2,2,0,0,1,2.22.42,9.72,9.72,0,0,1,1.24,1.61c.13.18.47,0,.36-.18l0-.05C370.38,225.25,367.74,221.62,364.72,221.7Z" style="fill: rgb(38, 50, 56); transform-origin: 367.697px 225.022px;" id="elr06wqeskpki" class="animable"></path><path d="M368.53,229.25a.87.87,0,1,0,.55-1.1A.87.87,0,0,0,368.53,229.25Z" style="fill: rgb(255, 255, 255); transform-origin: 369.355px 228.975px;" id="ela4ssvva6rl" class="animable"></path><path d="M366.59,228.16a.62.62,0,0,0,1.17-.39.62.62,0,0,0-.78-.39A.61.61,0,0,0,366.59,228.16Z" style="fill: rgb(255, 255, 255); transform-origin: 367.166px 227.937px;" id="el7cx2sba7nzd" class="animable"></path><path d="M367,229.46c.09.86-2.63-1.87-2.79-2.3s-2-1.57-2.46-2.39a21.41,21.41,0,0,1-1.65-3.84c-.11-.59-1.31-2-1.38-3.07s-.29-10.49,5.6-17.22,11.46-7.52,11.46-7.52a39.24,39.24,0,0,1,8.51-1c4.63,0,12,10.37,12,10.6a3.84,3.84,0,0,0,0,1.62c.26.64,1,1.26.69,1.91s.72,2.18.75,2.85-.13.85,0,1.3S395,199.33,380.63,196.2C380.63,196.2,365,211,367,229.46Z" style="fill: rgb(121, 196, 176); transform-origin: 378.216px 210.873px;" id="eluuvy59p1zs" class="animable"></path><path d="M397.78,210.32a.93.93,0,0,0,0,.13Z" style="fill: rgb(121, 196, 176); transform-origin: 397.779px 210.385px;" id="elljvufax3jqr" class="animable"></path><path d="M397.78,210.32l0,.13S397.82,210.44,397.78,210.32Z" style="fill: rgb(121, 196, 176); transform-origin: 397.789px 210.385px;" id="elerjjszbw506" class="animable"></path><g id="elwctzhka31y"><path d="M360.08,215.82a1.22,1.22,0,0,0-1.28-.78c-.06.84-.08,1.53-.08,2v.34h0a1.14,1.14,0,0,0,.63,0A1.21,1.21,0,0,0,360.08,215.82Zm1.27,7a1.21,1.21,0,0,0-.83-.76c.22.55.5,1.19.76,1.73A1.17,1.17,0,0,0,361.35,222.85Zm3.45-3.4a1.11,1.11,0,0,0-.24-.39,1.18,1.18,0,0,0-.47-.33l-.13,0-.15,0a1,1,0,0,0-.55.06,1.2,1.2,0,0,0-.72,1.54,1,1,0,0,0,.24.4,1.16,1.16,0,0,0,1,.38A.86.86,0,0,0,364,221h.05a1.2,1.2,0,0,0,.65-.58A1.19,1.19,0,0,0,364.8,219.45Zm-3.69-10.14a1.19,1.19,0,0,0-1.07-.79.24.24,0,0,0,0,.08c-.09.29-.17.57-.25.85l-.06.22c-.08.31-.16.62-.23.92,0,.07,0,.13-.05.2h0a1.16,1.16,0,0,0,.95.06A1.19,1.19,0,0,0,361.11,209.31Zm7.29,6a1.22,1.22,0,0,0-.79,1.11,1,1,0,0,0,.06.38.09.09,0,0,0,0,0,1.19,1.19,0,0,0,.36.51c.09-.35.19-.69.29-1s.12-.41.19-.61c0,0,0,0,0-.05s.08-.28.13-.42A1.31,1.31,0,0,0,368.4,215.34Zm-1.56,10.94v-.2c0-.21,0-.42,0-.63v0c0-.1,0-.2,0-.3a.29.29,0,0,0-.13,0,1.11,1.11,0,0,0-.54,0,1.2,1.2,0,0,0,.6,2.31h.08v0C366.85,227.05,366.84,226.66,366.84,226.28Zm-1-13.84-.09-.19a1.16,1.16,0,0,0-.16-.21,1.19,1.19,0,0,0-1.28-.31h0a1.2,1.2,0,0,0-.72,1.54,1.22,1.22,0,0,0,.76.73l.24,0a.61.61,0,0,0,.3,0,.69.69,0,0,0,.24-.05A1.19,1.19,0,0,0,365.85,212.44Zm-.54-9.13a1.2,1.2,0,0,0-2.26.82,1.2,1.2,0,0,0,1.54.72l.17-.08a1.16,1.16,0,0,0,.61-1.17A1.5,1.5,0,0,0,365.31,203.31Zm8.89-1.95a1.18,1.18,0,0,0-.92-.77l-.21,0a1.22,1.22,0,0,0-.41.07.9.9,0,0,0-.29.16l0,0h0a1.23,1.23,0,0,0-.39.54,1.2,1.2,0,0,0,1.54,1.53,1.22,1.22,0,0,0,.72-1.54Zm3-6,0-.06a1.08,1.08,0,0,0-.54-.59,1.13,1.13,0,0,0-.92-.08h-.05a1.2,1.2,0,0,0-.79,1.15,1,1,0,0,0,.07.39,1.33,1.33,0,0,0,.2.35,1.27,1.27,0,0,0,.58.39h0a1.2,1.2,0,0,0,.75,0,1,1,0,0,0,.41-.26,1.2,1.2,0,0,0,.31-1.28Zm6.3-3.17h-.14l-.83,0h-.39l-.42,0-.5,0h0a1.24,1.24,0,0,0,0,.33,1.1,1.1,0,0,0,0,.18l.06.2a1.06,1.06,0,0,0,.18.33,1.19,1.19,0,0,0,.89.46,1.2,1.2,0,0,0,.94-.39,1.17,1.17,0,0,0,.26-.46A1.2,1.2,0,0,0,383.53,192.18Zm-13.45,15.15a1.2,1.2,0,0,0-2.26.82s0,0,0,0l0,0a1.2,1.2,0,0,0,2.22-.91Zm-1-10.3a.91.91,0,0,0-.11-.22l-.07-.09v0a.75.75,0,0,0-.15-.16c-.15.1-.3.22-.45.34-.41.31-.82.66-1.24,1l-.14.12h0a0,0,0,0,0,0,0,1.22,1.22,0,0,0,.23.27,1.17,1.17,0,0,0,1.23.25A1.2,1.2,0,0,0,369.07,197Zm26,6a1.2,1.2,0,0,0-1.45-.74l-.09,0-.09,0-.09,0a1.18,1.18,0,0,0-.41.39,21.55,21.55,0,0,1,1.54,1.73,1.27,1.27,0,0,0,.27-.18,1.63,1.63,0,0,0,.17-.2.92.92,0,0,0,.14-.28A1.16,1.16,0,0,0,395.11,203Zm-8.39-5.71a1.09,1.09,0,0,0-.19-.33,1.21,1.21,0,0,0-1.35-.39l-.06,0a1.16,1.16,0,0,0-.67.72l.45.18.62.25c.21.08.42.18.63.28l.51.23A1.21,1.21,0,0,0,386.72,197.28Zm6.1,1-.35-.4-.43-.47-.33-.36h0a1.2,1.2,0,0,0-1.12.63.05.05,0,0,1,0,0,1.06,1.06,0,0,0-.09.25,1.2,1.2,0,0,0,1.45,1.45.31.31,0,0,0,.13,0l.18-.09a.8.8,0,0,0,.21-.15,1.26,1.26,0,0,0,.4-.85h0Z" style="fill: rgb(255, 255, 255); opacity: 0.3; transform-origin: 376.926px 209.772px;" class="animable"></path></g><g id="el7gq8jztmutc"><path d="M364.23,227.16a12.7,12.7,0,0,1-.22-2.54c0-.85,0-1.7,0-2.55,0-1.71.07-3.41.18-5.11,0-.42.05-.85.11-1.26a5.23,5.23,0,0,1,.38-1.18c.33-.78.72-1.54,1.1-2.3s.78-1.52,1.18-2.27l1.2-2.26c-.91,1.44-1.77,2.92-2.59,4.42-.4.75-.79,1.52-1.14,2.3a6.33,6.33,0,0,0-.42,1.25c-.06.43-.09.85-.12,1.28-.09,1.71-.13,3.42-.11,5.13,0,.85,0,1.71.09,2.56,0,.43.07.85.12,1.28A5.89,5.89,0,0,0,364.23,227.16Z" style="fill: rgb(5, 4, 0); opacity: 0.1; transform-origin: 365.967px 217.425px;" class="animable"></path></g><g id="elztbooerdyf"><path d="M363.87,209.59a20.76,20.76,0,0,0-1.66,2.56,20,20,0,0,0-1.31,2.77,13.83,13.83,0,0,0-.82,3,8.45,8.45,0,0,0,0,3.05c0-.25,0-.51,0-.76a1.61,1.61,0,0,1,0-.38l0-.37c0-.13,0-.26,0-.38l.06-.38c0-.24.06-.5.12-.74l.17-.74.21-.72c.07-.25.15-.48.24-.72s.16-.48.26-.71a28.47,28.47,0,0,1,1.23-2.77c.22-.46.46-.9.71-1.35S363.61,210,363.87,209.59Z" style="fill: rgb(5, 4, 0); opacity: 0.1; transform-origin: 361.906px 215.28px;" class="animable"></path></g><g id="el4a56vtmt8l7"><path d="M396.17,203.87a15.78,15.78,0,0,0-1.78-2.29c-.64-.73-1.31-1.43-2-2.12a26.78,26.78,0,0,0-2.12-2,10,10,0,0,0-2.53-1.43,12,12,0,0,1,1.24.75,9.56,9.56,0,0,1,1.15.86c.36.31.69.65,1,1l1,1,2,2.06c.34.34.67.69,1,1.05A12.36,12.36,0,0,1,396.17,203.87Z" style="fill: rgb(5, 4, 0); opacity: 0.1; transform-origin: 391.955px 199.95px;" class="animable"></path></g><g id="el0dhri0vdlwi6"><path d="M397,206.74a17.07,17.07,0,0,0-1.07-1.8,20.43,20.43,0,0,0-1.26-1.68,10.57,10.57,0,0,0-.73-.77c-.26-.23-.52-.46-.79-.68l-.8-.68c-.27-.21-.54-.44-.82-.65l.72.76.75.73c.24.25.5.49.75.73a9.89,9.89,0,0,1,.69.75c.45.53.87,1.08,1.3,1.62.21.28.43.55.63.83S396.79,206.46,397,206.74Z" style="fill: rgb(5, 4, 0); opacity: 0.1; transform-origin: 394.265px 203.61px;" class="animable"></path></g><g id="elnwkgnpt1vp"><path d="M365.56,199.31c2.44.86,8,2.76,9.23,2.58a8,8,0,0,0,1.23-.33,46.82,46.82,0,0,1,4.61-5.36,27,27,0,0,1,4.89,1.54,25.93,25.93,0,0,0,3.54-3.22c-1.65-1.37-3.33-2.35-4.75-2.35a39.12,39.12,0,0,0-8.51,1S371,193.8,365.56,199.31Z" style="fill: rgb(5, 4, 0); opacity: 0.1; transform-origin: 377.31px 197.036px;" class="animable"></path></g><path d="M379.64,193.66s4.38-6.4,11.11-6.84c0,0-.58,6.63-3,8.7-1.22,1-6.49,1.24-7.06.34A11.53,11.53,0,0,1,379.64,193.66Z" style="fill: rgb(121, 196, 176); transform-origin: 385.195px 191.619px;" id="elh1w7wts4ho7" class="animable"></path><g id="ellih4xhcxjv"><path d="M383.53,192.18a1.18,1.18,0,0,0-.66-.69,1.21,1.21,0,0,0-.88,0,1.09,1.09,0,0,0-.39.23,1.2,1.2,0,0,0-.36.6,1.24,1.24,0,0,0,0,.33,1.1,1.1,0,0,0,0,.18.73.73,0,0,0,0,.2,1.35,1.35,0,0,0,.19.33,1.19,1.19,0,0,0,.89.46,1.2,1.2,0,0,0,.94-.39,1.17,1.17,0,0,0,.26-.46A1.2,1.2,0,0,0,383.53,192.18Zm5.56-.81a1.2,1.2,0,0,0,0,2.25,8.73,8.73,0,0,0,.43-1c.05-.12.09-.24.13-.36.1-.28.19-.57.27-.86A1.19,1.19,0,0,0,389.09,191.37ZM386.44,188l-.51.25-.49.26-.47.27a1.16,1.16,0,0,0,1.2.23,1.2,1.2,0,0,0,.79-1.24Z" style="fill: rgb(255, 255, 255); opacity: 0.3; transform-origin: 385.574px 190.796px;" class="animable"></path></g><g id="elm2yxxfgfqil"><path d="M379.64,193.67a12.46,12.46,0,0,0,1,2.18.29.29,0,0,0,.11.11.57.57,0,0,0,.14.11l.13.05a7.4,7.4,0,0,0,2.9.29,16.68,16.68,0,0,0-.59-2.91,4.35,4.35,0,0,0-1.91-1.92A16.15,16.15,0,0,0,379.64,193.67Z" style="fill: rgb(5, 4, 0); opacity: 0.1; transform-origin: 381.78px 194.013px;" class="animable"></path></g><path d="M378,194.5s-9.27-1.88-13.85-.08c0,0,2.22,5,6.83,6.41,2.07.64,8.37-2.87,8.09-4A9.17,9.17,0,0,0,378,194.5Z" style="fill: rgb(121, 196, 176); transform-origin: 371.615px 197.274px;" id="el7idhuoyxfsn" class="animable"></path><g id="ely983if81ec9"><path d="M373.07,200.57a1.22,1.22,0,0,0-.73.24h0a8.7,8.7,0,0,0,.89-.21Zm4.16-5.22,0-.06a1.08,1.08,0,0,0-.54-.59,1.13,1.13,0,0,0-.92-.08h-.05a1.2,1.2,0,0,0-.79,1.15,1,1,0,0,0,.07.39,1.33,1.33,0,0,0,.2.35,1.27,1.27,0,0,0,.58.39h0a1.2,1.2,0,0,0,.75,0,1,1,0,0,0,.41-.26,1.2,1.2,0,0,0,.31-1.28ZM369.07,197a.91.91,0,0,0-.11-.22l-.07-.09v0a.75.75,0,0,0-.15-.16h0a1.23,1.23,0,0,0-1.2-.22,1.2,1.2,0,0,0-.72,1.54.51.51,0,0,0,.09.18h0a1.18,1.18,0,0,0,.22.28,1.2,1.2,0,0,0,1.95-1.29Z" style="fill: rgb(255, 255, 255); opacity: 0.3; transform-origin: 372.034px 197.684px;" class="animable"></path></g><g id="elq58zy8mo05"><path d="M375.84,194.14a5.51,5.51,0,0,0,0,3.09,4.51,4.51,0,0,0,1.16,1.59c1.24-.77,2.12-1.55,2-2a9.32,9.32,0,0,0-1.07-2.35S377.13,194.32,375.84,194.14Z" style="fill: rgb(5, 4, 0); opacity: 0.1; transform-origin: 377.315px 196.48px;" class="animable"></path></g><path d="M376.88,196.56a3.07,3.07,0,1,0,1.5-4.07A3.06,3.06,0,0,0,376.88,196.56Z" style="fill: rgb(121, 196, 176); transform-origin: 379.667px 195.276px;" id="elerquamsp0k5" class="animable"></path></g><g id="freepik--character-1--inject-45" class="animable" style="transform-origin: 585.761px 290.708px;"><polygon points="659.99 317.57 661.79 331.06 683.87 442.1 690.19 442.1 672.76 331.06 671.34 317.57 659.99 317.57" style="fill: rgb(121, 196, 176); transform-origin: 675.09px 379.835px;" id="elpgnue2rnp68" class="animable"></polygon><g id="elitf92v6495a"><polygon points="659.99 317.57 661.79 331.06 683.87 442.1 690.19 442.1 672.76 331.06 671.34 317.57 659.99 317.57" style="opacity: 0.3; transform-origin: 675.09px 379.835px;" class="animable"></polygon></g><polygon points="600.18 442.1 606.51 442.1 628.6 331.06 630.39 317.57 619.04 317.57 617.63 331.06 600.18 442.1" style="fill: rgb(121, 196, 176); transform-origin: 615.285px 379.835px;" id="elmksfzoiyhpo" class="animable"></polygon><g id="el319yrrh5k07"><polygon points="600.18 442.1 606.51 442.1 628.6 331.06 630.39 317.57 619.04 317.57 617.63 331.06 600.18 442.1" style="opacity: 0.3; transform-origin: 615.285px 379.835px;" class="animable"></polygon></g><g id="el0y2yrcc75mj"><rect x="610.47" y="407.04" width="70.49" height="3.17" style="fill: rgb(121, 196, 176); transform-origin: 645.715px 408.625px; transform: rotate(180deg);" class="animable"></rect></g><g id="el5fi6m81919x"><rect x="610.47" y="407.04" width="70.49" height="3.17" style="opacity: 0.3; transform-origin: 645.715px 408.625px; transform: rotate(180deg);" class="animable"></rect></g><g id="elw8bam8biin"><polygon points="672.76 330.58 661.79 330.58 659.99 317.57 671.34 317.57 672.76 330.58" style="opacity: 0.3; transform-origin: 666.375px 324.075px;" class="animable"></polygon></g><g id="el5ld8x97blg"><polygon points="617.63 330.58 628.6 330.58 630.39 317.57 619.04 317.57 617.63 330.58" style="opacity: 0.3; transform-origin: 624.01px 324.075px;" class="animable"></polygon></g><g id="elsh3kf8d166a"><rect x="611.66" y="308.61" width="67.06" height="13.03" style="fill: rgb(121, 196, 176); transform-origin: 645.19px 315.125px; transform: rotate(180deg);" class="animable"></rect></g><g id="el2z32bndsdv6"><rect x="611.66" y="308.61" width="67.06" height="13.03" style="opacity: 0.3; transform-origin: 645.19px 315.125px; transform: rotate(180deg);" class="animable"></rect></g><path d="M571.22,440.62c2.36,0,64.88-20.22,66.73-22.45.22-.25-1.49-5.94-4-13.69l0-.16c-1.54-4.91-20.59-42.94-20.59-42.94L573,376.19l19,35.08s-7.33,6.24-13.57,12.1v0a92,92,0,0,0-7.85,7.83C568.79,433.87,568.87,440.6,571.22,440.62Z" style="fill: rgb(173, 99, 89); transform-origin: 603.652px 401px;" id="el46o7zt91c4q" class="animable"></path><path d="M638,418.17c-1.84,2.23-64.38,22.48-66.74,22.44s-2.42-6.75-.67-9.38a92.47,92.47,0,0,1,7.84-7.84l0,0c2.39-2.24,4.93-4.55,7.18-6.52-7.67,8.57-11.83,20.8,47.59-14.34a14.64,14.64,0,0,1,.76,1.83l0,.15C636.46,412.23,638.18,417.92,638,418.17Z" style="fill: rgb(121, 196, 176); transform-origin: 603.692px 421.57px;" id="elyvpf37ydclb" class="animable"></path><path d="M587.73,409.8l44.68-12.27s-34.8-77.07-33.56-80.92c.83-2.58,55.68-1.48,72.08-15.54,17-14.55,4.71-44.19,4.71-44.19l-46.1-1.31s.57,9.64-1.22,11.1c-1.19,1-64.36,5.05-77,27.95C539.91,315.4,587.73,409.8,587.73,409.8Z" style="fill: rgb(55, 71, 79); transform-origin: 614.748px 332.685px;" id="elruvr6rhd9h" class="animable"></path><path d="M598.85,316.6c-.21.65.61,3.41,2.14,7.55l-34.08,39.94c-11.19-27.21-21.58-58.54-15.56-69.47,12.62-22.9,75.78-27,77-27.95,1.79-1.46,1.22-11.1,1.22-11.1l29.26.83-50,58.61C602.91,315.52,599.07,315.93,598.85,316.6Z" style="fill: rgb(38, 50, 56); transform-origin: 604.206px 309.83px;" id="elgig811hgw7o" class="animable"></path><path d="M586.85,400.39a27.6,27.6,0,0,1,3.65-1.26l3.87-1.2c2.56-.75,5.12-1.47,7.69-2.14,5.19-1.34,10.38-2.64,15.6-3.84,2.73-.63,8.56-2,8.92-1.93.17,0,.2.32,0,.37-5,1.68-10.18,3.1-15.31,4.53s-10.25,2.85-15.43,4c-1.44.33-2.88.62-4.32.93a34.07,34.07,0,0,1-4.59.87C586.82,400.76,586.69,400.47,586.85,400.39Z" style="fill: rgb(38, 50, 56); transform-origin: 606.747px 395.371px;" id="elfdegwac0v1j" class="animable"></path><path d="M673,265.6c-.1-1.54-.24-3.08-.38-4.62,0-.18-.29-.18-.28,0,.47,6.25,1,12.65-.34,18.83a26.83,26.83,0,0,1-8.58,14.73c-9.35,8.32-22.19,10.54-34.16,12.29-6.85,1-13.74,1.73-20.64,2.25-3.39.25-6.77.44-10.16.58s-6.73.08-10.08.19c-1.06,0-2,.5-1.88,1.71a8.64,8.64,0,0,0,.75,2.14l1,2.47q1.9,4.6,3.84,9.22,4,9.48,8.11,18.92,8.16,18.74,17,37.19l2.19,4.57c0,.1.19,0,.15-.08q-8.4-18.67-16.57-37.44c-2.7-6.21-5.41-12.42-8.08-18.64q-2-4.67-4-9.34-1-2.34-2-4.68c-.33-.79-.65-1.57-1-2.35s-1.28-2.21-.55-2.79c.49-.39,1.49-.23,2.07-.24l2.67,0c1.7,0,3.39-.05,5.09-.09,3.43-.1,6.87-.25,10.29-.47,6.72-.42,13.42-1.12,20.09-2,11.88-1.63,24.81-3.48,34.47-11.21a28.4,28.4,0,0,0,9.4-13.05C673.41,277.86,673.38,271.62,673,265.6Z" style="fill: rgb(38, 50, 56); transform-origin: 629.846px 323.479px;" id="elmjhbpj9gsl" class="animable"></path><path d="M472.58,379.76c1.63,1.7,59.93,32.05,62.81,31.8.34,0,3.19-5.23,7-12.43l.08-.14c2.42-4.55,24.29-42.81,24.29-42.81l-36.25-19.43L508.05,374s-9.58-.85-18.14-1.19h0a94,94,0,0,0-11.09-.1C475.69,373.29,470.94,378.07,472.58,379.76Z" style="fill: rgb(173, 99, 89); transform-origin: 519.502px 374.156px;" id="elwi58o1qcrcb" class="animable"></path><path d="M542.81,398.35c-.15.25-.27.47-.36.64l-.08.15c-3.79,7.2-6.64,12.41-7,12.42-2.88.25-61.18-30.09-62.8-31.81s3.09-6.47,6.2-7.06a89,89,0,0,1,11.1.09h0c3.65.15,7.47.38,10.65.61C488.8,373.35,474.06,378.4,542.81,398.35Z" style="fill: rgb(121, 196, 176); transform-origin: 507.525px 392.06px;" id="el71z14q5ulx7" class="animable"></path><path d="M508.37,367.86,552.1,391s36.16-69.41,40.06-73.85c5.19-5.91,70.77,4.13,86.74-15,16.51-19.77,3.35-45.11,3.35-45.11l-50.08-1.19s-.27,5.55,2.42,13.74c0,0-57.17-4.74-73.74,10.64C548.13,292.05,508.37,367.86,508.37,367.86Z" style="fill: rgb(55, 71, 79); transform-origin: 597.795px 323.425px;" id="el0lf4vh2iud3" class="animable"></path><path d="M643.6,274.88a86,86,0,0,0-7.85-5.06,32.93,32.93,0,0,0-6-2.57c-1.45-.39-2.09-.51-.73.17l3.64,1.83-.77-.05L629,269c-1.93-.09-3.86-.12-5.78-.18-3.91-.11-7.79.17-11.69.27-.1,0-.1.16,0,.16,3.9,0,7.8.27,11.69.34,1.93,0,3.85.14,5.78.22l2.82.11a23.76,23.76,0,0,0,2.39.06l1.06.53c2.8,1.41,5.59,2.86,8.29,4.46C643.6,275,643.68,274.93,643.6,274.88Z" style="fill: rgb(38, 50, 56); transform-origin: 627.545px 270.955px;" id="el5kl1ew3zsw5" class="animable"></path><path d="M631,254c.46,2.38.84,4.76,1.38,7.12.24,1.08.49,2.18.83,3.24.29.89.75,1.91,1.74,2.17,1.15.29,1.54-.69,1.5-1.65a32.23,32.23,0,0,0-.41-3.24c-.17-1.23-.35-2.46-.5-3.69-.08-.61-.16-1.23-.23-1.85,0-.15-.06-1.33-.12-1.67,0,0,0,.06-.07,0h0s-.07,0-.07-.06a.16.16,0,0,1,.07-.18.11.11,0,0,1,.11,0c.21.14.21.44.27.67.15.6.31,1.21.45,1.81.26,1.14.51,2.28.73,3.42s.44,2.29.65,3.43a5.29,5.29,0,0,1,.08,2.62,2,2,0,0,1-1.93,1.39,2.56,2.56,0,0,1,.11.24c.09.23.16.48.23.72s.14.5.2.75a2.21,2.21,0,0,1,0,.37c0,.13,0,.26,0,.4a.2.2,0,0,1-.37.11,3,3,0,0,0-.2-.34,3.17,3.17,0,0,1-.14-.4c-.07-.24-.12-.48-.17-.72s-.1-.48-.13-.73a3,3,0,0,1,0-.43,2.68,2.68,0,0,1-1.32-.59,4.57,4.57,0,0,1-1.28-2.22c-.3-1-.51-2-.73-3a43.66,43.66,0,0,1-1.06-7.63A.21.21,0,0,1,631,254Z" style="fill: rgb(38, 50, 56); transform-origin: 634.079px 262.059px;" id="elisb8wxr6kl" class="animable"></path><path d="M655,261.26c.15,1.17.21,2.35.42,3.52s.44,2.29.74,3.4a12.31,12.31,0,0,0,1.26,3.1,11.63,11.63,0,0,0,2.14,2.45,19.4,19.4,0,0,0,5.33,3.37,24.31,24.31,0,0,0,3,1.07c.53.15,1.07.28,1.62.38a3.21,3.21,0,0,1,1.29.38.26.26,0,0,1-.05.45,4.77,4.77,0,0,1-2.43-.06,18.79,18.79,0,0,1-2.57-.6,19.1,19.1,0,0,1-4.8-2.35,15.73,15.73,0,0,1-3.91-3.59,11.8,11.8,0,0,1-1.92-4.94,24.23,24.23,0,0,1-.35-6.58A.12.12,0,0,1,655,261.26Z" style="fill: rgb(38, 50, 56); transform-origin: 662.797px 270.342px;" id="el9wg2ltsoul" class="animable"></path><path d="M517.54,360a28.51,28.51,0,0,1,3.52,1.59c1.22.59,2.43,1.18,3.64,1.79,2.37,1.2,4.73,2.43,7.06,3.72,4.69,2.59,9.36,5.2,14,7.92,2.41,1.41,7.59,4.42,7.81,4.72.1.14-.08.37-.23.3-4.82-2.25-9.53-4.74-14.24-7.22s-9.41-5-14-7.67c-1.27-.75-2.51-1.53-3.77-2.29a31.61,31.61,0,0,1-3.93-2.52C517.27,360.27,517.37,360,517.54,360Z" style="fill: rgb(38, 50, 56); transform-origin: 535.47px 370.026px;" id="elkge19lc46q" class="animable"></path><path d="M681.94,268.71a.16.16,0,0,0-.33,0c-.16,10.87-2.12,23-10.67,30.59-9.37,8.34-22.64,9.06-34.55,8.68-6.83-.22-13.66-.55-20.5-.49s-13.82.23-20.66.95a11.21,11.21,0,0,0-7.08,3.18,36.06,36.06,0,0,0-4.8,6.57Q578,326.62,573,335.24q-10,17.14-18.61,35.05c-.71,1.48-1.41,3-2.11,4.45-.05.1.1.19.14.09,5.82-12,12.09-23.73,18.71-35.27q5-8.65,10.27-17.13c1.66-2.65,3.27-5.37,5.11-7.91,1.62-2.24,3.64-4.33,6.38-5.09a25.15,25.15,0,0,1,5.12-.62c1.75-.12,3.5-.23,5.25-.32,3.41-.17,6.83-.27,10.25-.32,6.9-.09,13.78.16,20.67.44,12,.49,25,.39,35.15-7a28.25,28.25,0,0,0,9.53-12.67,51,51,0,0,0,3-16.13C681.92,271.45,681.94,270.08,681.94,268.71Z" style="fill: rgb(38, 50, 56); transform-origin: 617.105px 321.709px;" id="elhv3zdu6acol" class="animable"></path><path d="M609.17,314.67c-2.44,0-4.88,0-7.32.05a29.42,29.42,0,0,0-6.08.4c-1.86.42-3.33.61-4.89,2.64-2,2.54-12.69,22.16-17.21,30.85q-1.87,3.61-3.71,7.25c-1.25,2.51-2.37,5.09-3.63,7.6,0,.09.09.17.14.08,1.11-2.1,2.33-4.14,3.47-6.22s2.26-4.18,3.37-6.27q3.36-6.36,6.73-12.71c2.24-4.19,4.93-8.27,7.19-12.44,1.91-3.51,4.5-8.3,6.26-9a28.48,28.48,0,0,1,7.6-1.66c2.69-.13,5.39-.23,8.09-.4A.1.1,0,0,0,609.17,314.67Z" style="fill: rgb(38, 50, 56); transform-origin: 587.776px 339.125px;" id="el75xde3fddom" class="animable"></path><path d="M645.2,208.21c-4.33,19.08-13.35,42-17.21,45.69-4.88,4.71-35.21,11-36.83,11.13-4,.41-9.66-25.14-7.31-25.18,6.55-.08,27.51-3.67,28.92-5.12s11.38-14.1,21.58-28.3C641.39,196.61,647.89,196.37,645.2,208.21Z" style="fill: rgb(173, 99, 89); transform-origin: 614.559px 232.111px;" id="el2zx5tjmb099" class="animable"></path><path d="M593.43,264.64A79.24,79.24,0,0,1,583.27,269c-2.77.81-10.83,2.94-12,0-.81-2,3.77-3.83,7-5.18,1.7-.71,3.78-2.49,3.28-3.58-.88-1.9-5.24,0-8.11,1.7-5.54,3.24-12.93,9.06-16.33,6.25-1.28-1.06.21-3,2.38-4.91-3.53,2.23-7.3,4-8.77,2.93a1.88,1.88,0,0,1-.42-2.53,2.47,2.47,0,0,1-2.73-.42c-1.15-1.2-.59-3,.66-4.79a1.39,1.39,0,0,1-1-.69c-2.45-3.7,9.71-14.38,13.91-15.38a106.37,106.37,0,0,1,25.44-2.46C591.38,243.77,593.44,264.63,593.43,264.64Z" style="fill: rgb(173, 99, 89); transform-origin: 570.169px 255.208px;" id="elq8wbb10zwjn" class="animable"></path><path d="M575.19,253.27a21.26,21.26,0,0,0-8.26,3.2c-3.14,2.08-5.21,4.52-7.84,7-.07.06,0,.17.1.11,1.25-1.17,6.44-5.55,7.78-6.54a20.05,20.05,0,0,1,8.23-3.69S575.22,253.27,575.19,253.27Z" style="fill: rgb(38, 50, 56); transform-origin: 567.134px 258.434px;" id="el1vf3oc6nvqg" class="animable"></path><path d="M572.86,248a50.14,50.14,0,0,0-9.6,3.36c-3.3,1.69-5.89,4.44-8.42,7.09q-2.3,2.38-4.47,4.88c-.06.07,0,.18.1.11q3.85-4.11,8-8a26.53,26.53,0,0,1,8.75-5.55c1.87-.71,3.78-1.28,5.69-1.85C572.91,248.07,572.9,248,572.86,248Z" style="fill: rgb(38, 50, 56); transform-origin: 561.628px 255.731px;" id="elz9aw8i0fqj" class="animable"></path><path d="M569.38,243.43c-3.17.66-5.92,1.22-8.72,2.93a45,45,0,0,0-8.53,7.38q-2.07,2.23-4,4.56c-.05.07.06.16.11.1a106.18,106.18,0,0,1,9.63-9.58,20.88,20.88,0,0,1,5.39-3.52,36.56,36.56,0,0,1,6.15-1.84S569.39,243.43,569.38,243.43Z" style="fill: rgb(38, 50, 56); transform-origin: 558.764px 250.925px;" id="eltuc1evg4ulg" class="animable"></path><path d="M586.78,236.9l10,31.54s27-7.76,31.87-13.09,14-32.8,16.6-46.11-4.08-13-10.25-4.56-21.5,28.77-22.36,29.21S586.78,236.9,586.78,236.9Z" style="fill: rgb(121, 196, 176); transform-origin: 616.303px 233.583px;" id="elstg9ne2s88b" class="animable"></path><path d="M599.17,235.83l-.66-.17,2.21-.25a6.63,6.63,0,0,0,2.46.26,4.5,4.5,0,0,0,2-.76h0l1.37-.16a5.82,5.82,0,0,1-1.94,1.34C602.83,236.85,601,236.31,599.17,235.83Zm18.21,14.8a11.45,11.45,0,0,0-9.71.15,10.76,10.76,0,0,0-3.73,3,10.51,10.51,0,0,0-1.92,4.58c-.34,1.83-.62,3.86-2.25,5a6.09,6.09,0,0,1-4.24,1l.25.78a6,6,0,0,0,5.59-2.25c1.09-1.5,1.2-3.4,1.59-5.15a9,9,0,0,1,2.53-4.51,10.4,10.4,0,0,1,9.91-2.5,13.69,13.69,0,0,1,8.38,7c.12.23.23.46.34.69l.7-.37A14.92,14.92,0,0,0,617.38,250.63Zm8.55.91a6.71,6.71,0,0,0,1,5l.1.16c.23-.16.44-.31.64-.47a7,7,0,0,1-1-2.55c-.38-2.15.78-4.05,2.2-5.57A49.12,49.12,0,0,1,635,243l.57-1.46a85.63,85.63,0,0,0-6.7,5.45A9.66,9.66,0,0,0,625.93,251.54Zm14.63-29.64c-2.28-1.89-5.71-1.32-8.07.11-3.1,1.87-4.56,5.44-6,8.56-1.57,3.3-3.69,7-7.47,8.05-3.38.94-6.26-1.44-7.16-4.55l-.8.12a7.33,7.33,0,0,0,4.28,5.06c3.34,1.29,6.75-.8,8.86-3.3,2.44-2.88,3.45-6.62,5.44-9.78,1.75-2.77,4.68-5.09,8.15-4.62a4.46,4.46,0,0,1,3.6,2.87c.12-.38.23-.76.34-1.14A4.64,4.64,0,0,0,640.56,221.9ZM645,210.28c-2.11.58-4.23,1.14-6.34,1.78-4.18,1.28-8.33,2.72-12.38,4.39-.32.41-.63.83-.95,1.25l1.48-.61c4.19-1.7,8.46-3.18,12.79-4.47,1.75-.53,3.53-1,5.29-1.48.07-.3.13-.59.19-.88Z" style="fill: rgb(255, 255, 255); transform-origin: 620.305px 237.731px;" id="elfnjefmrffr" class="animable"></path><path d="M599.37,254.41c-1.22-3.71-2.46-7.42-3.54-11.19-.61-2.14-1.24-4.27-1.83-6.42,0-.08.12-.13.15-.05,1.36,3.69,2.73,7.38,3.92,11.13s2.42,7.44,3.57,11.19c.65,2.13,1.23,4.26,1.75,6.43,0,0-.06.07-.07,0C601.82,261.89,600.59,258.16,599.37,254.41Z" style="fill: rgb(38, 50, 56); transform-origin: 598.695px 251.12px;" id="el02u1gy1w96bv" class="animable"></path><g id="eliwrzozy4r7e"><path d="M645.28,209.25c-2.64,13.3-11.68,40.77-16.6,46.1s-31.86,13.09-31.86,13.09l-3.53-11.08c15.22-18.29,38.07-44.91,49.86-58.6C645.48,199.06,646.66,202.28,645.28,209.25Z" style="opacity: 0.1; transform-origin: 619.58px 233.6px;" class="animable"></path></g><path d="M625.43,266.48l62.33-.77s-17.06-51.83-30.28-65.11c-6-6-11.67-4.91-16.37-.76-1.17,1-15.34,20.88-16.39,27.51-.94,5.87,3.83,11.75,3.83,11.75Z" style="fill: rgb(121, 196, 176); transform-origin: 656.179px 231.446px;" id="elbmy7k29prna" class="animable"></path><path d="M627.77,266.45h-.83c-.39-1.16-.74-2.33-1.11-3.5l.21-1.86C626.66,262.87,627.16,264.68,627.77,266.45Z" style="fill: rgb(255, 255, 255); transform-origin: 626.8px 263.77px;" id="elqau8ws1cdpe" class="animable"></path><path d="M680.12,265.42a10.3,10.3,0,0,1,2,.36l-6.78.08A16.38,16.38,0,0,1,680.12,265.42Z" style="fill: rgb(255, 255, 255); transform-origin: 678.73px 265.628px;" id="elob1hbr4qcc" class="animable"></path><path d="M639.59,212.62q-4.76,1.41-9.39,3.15l.67-1.11c2.57-.94,5.17-1.8,7.78-2.6,2.11-.64,4.23-1.2,6.34-1.78A23,23,0,0,0,650.8,208c3-1.82,5.44-5.36,4-9a7.13,7.13,0,0,0-.49-1,13.87,13.87,0,0,1,1.3.9,6.39,6.39,0,0,1,.34,1.32c.52,3.47-1.78,6.58-4.6,8.33a21.43,21.43,0,0,1-5.52,2.25C643.78,211.46,641.67,212,639.59,212.62Z" style="fill: rgb(255, 255, 255); transform-origin: 643.112px 206.885px;" id="elw1i8wk33o5f" class="animable"></path><path d="M629.6,226.17c-1.54,2.45-2.5,5.25-4,7.72-.13-.33-.25-.67-.36-1,.43-.77.83-1.55,1.19-2.31,1.48-3.12,2.94-6.69,6-8.56,2.36-1.43,5.79-2,8.07-.11a7.3,7.3,0,0,1,2.17,4.68,17.12,17.12,0,0,1-.05,5.8,15.65,15.65,0,0,1-5.68,9c-2.67,2.29-5.72,4.17-8.14,6.75a9.83,9.83,0,0,0-1.58,2.16l.2-1.78a15.17,15.17,0,0,1,1.37-1.51c2.49-2.46,5.5-4.3,8.1-6.63a17,17,0,0,0,3.4-4,13.25,13.25,0,0,0,1.77-5.88c.23-3.34-.25-8.4-4.37-8.95C634.28,221.08,631.35,223.4,629.6,226.17Z" style="fill: rgb(255, 255, 255); transform-origin: 634.067px 235.504px;" id="elao21l9aqogn" class="animable"></path><path d="M650.2,214.71c-2.46,2.95-2,7.15-.06,10.23s4.84,4.9,7.8,6.64a42.68,42.68,0,0,1,7.77,5.17,12.8,12.8,0,0,1,2.68,3.48c.74,1.48,1.3,3.28.49,4.85a4.81,4.81,0,0,1-3.5,2.29,8.37,8.37,0,0,1-5-1,57.65,57.65,0,0,0-5.57-2.76,10.45,10.45,0,0,0-6.15-.53c-3,.79-5.73,4.51-3.81,7.46s6.58,3.23,7.48,7c.87,3.59-3.33,5.2-6.08,5.75a21.26,21.26,0,0,1-10.68-.59c-3.33-1.08-6.72-3.1-8.62-6.13-.12-.19-.23-.39-.33-.59l.18-1.62a9.32,9.32,0,0,0,2.92,4.19,18.33,18.33,0,0,0,10.33,4.27,20.94,20.94,0,0,0,5.59-.23,10,10,0,0,0,4.85-1.9c1.56-1.37,1.36-3.31,0-4.77s-3-2-4.47-3.09a5.57,5.57,0,0,1-2.57-3.75,5.8,5.8,0,0,1,1.15-4.07c2.18-3,5.94-3.45,9.32-2.5a26.78,26.78,0,0,1,5.46,2.46c1.67.92,3.55,1.91,5.52,1.69,1.63-.17,3.39-1.2,3.55-3s-.94-3.57-2-4.87c-2-2.47-4.8-4.09-7.49-5.65s-5.75-3.27-8-5.7c-2.36-2.59-3.87-6.07-3.15-9.61a7.22,7.22,0,0,1,6.36-6,6.25,6.25,0,0,1,4.17,1.18,6.68,6.68,0,0,1,2.31,4.25c.34,1.8.35,3.7,1.07,5.42a8.89,8.89,0,0,0,3.38,4,7.18,7.18,0,0,0,7.66.31l.33.76a7.4,7.4,0,0,1-3,1,9.13,9.13,0,0,1-8.2-4.19,11,11,0,0,1-1.64-4.85c-.25-1.78-.38-3.77-1.5-5.26C656.66,211.63,652.27,212.21,650.2,214.71Z" style="fill: rgb(255, 255, 255); transform-origin: 649.855px 237.76px;" id="el4pxuwx1661e" class="animable"></path><path d="M675,240.66a9.27,9.27,0,0,1,.52-7.4c.15.34.29.67.42,1l-.05.12c-1.13,2.83-.9,7,2,8.69a4.47,4.47,0,0,0,1.87.63l.3.77A5.73,5.73,0,0,1,675,240.66Z" style="fill: rgb(255, 255, 255); transform-origin: 677.262px 238.865px;" id="elgax1qg82h05" class="animable"></path><path d="M684,254.82l-5.88-.2c-4.05-.14-8.44-.64-12.32.82-3.08,1.15-5.64,4.12-5.37,7.56a4.52,4.52,0,0,0,1.49,3h-1.09a6.31,6.31,0,0,1-.63-6.31c1.3-3.22,4.24-5,7.55-5.67,4-.8,8.35-.31,12.44-.17l3.52.12C683.77,254.28,683.87,254.55,684,254.82Z" style="fill: rgb(255, 255, 255); transform-origin: 671.817px 259.787px;" id="el85ltnmv727i" class="animable"></path><path d="M646.27,238.67a53.77,53.77,0,0,0-7.72.18c-1.27.14-2.53.34-3.79.57-.63.11-1.25.2-1.89.29a7.8,7.8,0,0,1-2,.09.05.05,0,0,0,0,.1,14.62,14.62,0,0,0,1.88.22,12.52,12.52,0,0,0,1.83-.08c1.29-.13,2.57-.32,3.86-.47,2.61-.29,5.21-.58,7.83-.68A.11.11,0,0,0,646.27,238.67Z" style="fill: rgb(38, 50, 56); transform-origin: 638.6px 239.366px;" id="elckitvprrf5" class="animable"></path><path d="M652.23,241.81a55.26,55.26,0,0,0-6.26-1.19c-1.05-.14-2.11-.21-3.17-.26l-1.52,0c-.56,0-1.12.06-1.68.05-.06,0-.07.08,0,.09.52,0,1,.14,1.57.21l1.58.18c1,.12,2.1.25,3.16.36,2.11.23,4.21.48,6.31.77C652.32,242,652.33,241.84,652.23,241.81Z" style="fill: rgb(38, 50, 56); transform-origin: 645.926px 241.19px;" id="els4xa5h7sr1i" class="animable"></path><path d="M659.45,201.57c12.13,8.84,44.45,45,38.13,54s-51.31,7.21-64.52,3.78c-3.92-1,5.43-26.09,9.55-27.43,3.44-1.11,23,3.66,23.35,2.52s-4.16-9.37-11.5-24.17C646,193.15,654.09,197.66,659.45,201.57Z" style="fill: rgb(173, 99, 89); transform-origin: 665.256px 230.052px;" id="eluqt7bebs4z" class="animable"></path><path d="M623.35,228.08c-9,.46-11.22,2-19-1.67-5.11-2.38-8.83-.14-5.27,4.52,5.81,7.63,17.52,9.46,21.76,8.93Z" style="fill: rgb(173, 99, 89); transform-origin: 610.511px 232.697px;" id="elmvupdx7klm" class="animable"></path><path d="M648.19,232s-10.87-3.56-20.49-4c-6.65-.31-21.19.62-32.08,17.25-2.58,3.94-3.47,11.39,3.09,6.48,4.66-3.49,6.56-7.1,9.64-8.64,0,0,0,9.61,4,12a87.16,87.16,0,0,0,11,5.61,17.44,17.44,0,0,0,1.23-2s4,1.92,10.47,0Z" style="fill: rgb(173, 99, 89); transform-origin: 620.938px 244.328px;" id="elt5ig1mnypzj" class="animable"></path><path d="M621.31,228.72c-2.74,2.17-8.45,6.87-11.79,12.33-3.71,6.08-9.22,18.77-4.71,21.47,3.31,2,5.84-2.69,5.84-2.69s-1.18,5.73,2.2,6.86c3.08,1,4.82-2.7,4.82-2.7s-.11,3.6,3,4c3.8.5,3.41-7.12,7.7-9.93C629.38,257.45,621.31,228.72,621.31,228.72Z" style="fill: rgb(173, 99, 89); transform-origin: 615.786px 248.367px;" id="el4a24ol5e014" class="animable"></path><path d="M616.59,243.9a28.4,28.4,0,0,0-6,15.8c0,.15.11.23.14.09a69.94,69.94,0,0,1,5.93-15.85A0,0,0,0,0,616.59,243.9Z" style="fill: rgb(38, 50, 56); transform-origin: 613.625px 251.881px;" id="elw95cboo7go" class="animable"></path><path d="M622.61,247.83c-1.71,2.32-5.15,9.59-5.06,16.12,0,.15.11.22.14.09a74.61,74.61,0,0,1,5-16.18A0,0,0,0,0,622.61,247.83Z" style="fill: rgb(38, 50, 56); transform-origin: 620.119px 255.969px;" id="eldgz617952c" class="animable"></path><path d="M608.33,243c-2.68,1.39-4.27,3.15-6.35,5.28a37,37,0,0,1-3.23,3c-1,.85-2.56,2.13-4,1.39a2.38,2.38,0,0,1-1-2.23,11.53,11.53,0,0,1,.94-3.54c0-.05-.06-.08-.08,0a16.69,16.69,0,0,0-1.15,3.22,3.82,3.82,0,0,0,.17,2.27c.72,1.49,2.61,1.34,3.84.66a12.57,12.57,0,0,0,2-1.52c.61-.53,1.2-1.09,1.77-1.66,1.18-1.18,2.29-2.42,3.45-3.61a38.81,38.81,0,0,1,3.62-3.16C608.44,243.09,608.39,243,608.33,243Z" style="fill: rgb(38, 50, 56); transform-origin: 600.876px 248.273px;" id="elx37op054i4" class="animable"></path><path d="M604.3,254.22a90.55,90.55,0,0,1,4.1-11.12s0-.09-.07,0c-1.81,2.53-4.3,8.81-4.79,10.76a15.94,15.94,0,0,0-.61,6.35c.57,3,2.65,3.16,3.41,3.16a3.9,3.9,0,0,0,2.46-.9,8,8,0,0,0,1.88-2.6s0-.09-.07,0c-.81,1.37-2.3,2.86-4,3a2.76,2.76,0,0,1-2-.64,3.57,3.57,0,0,1-.94-2.31A16.47,16.47,0,0,1,604.3,254.22Z" style="fill: rgb(38, 50, 56); transform-origin: 606.761px 253.215px;" id="eljhva6upftxi" class="animable"></path><path d="M648.19,232,640,263.67s56.23,1.72,59.08-8.56-25.17-43-36.66-51.85C649.1,193,648.52,197.46,653,208c4.74,11,12.81,26.71,12.81,26.71Z" style="fill: rgb(121, 196, 176); transform-origin: 669.641px 230.619px;" id="eldk03q8m95ao" class="animable"></path><path d="M652.85,207.53c-.12-.27-.22-.53-.33-.78,2.13-2,3.44-4.8,2.31-7.69a6.41,6.41,0,0,0-.52-1.05c.36.15.75.34,1.17.56a6.61,6.61,0,0,1,.5,1.71A8.15,8.15,0,0,1,652.85,207.53Zm15.54,32.7a12.8,12.8,0,0,0-2.68-3.48,22.92,22.92,0,0,0-3.45-2.6l-2-.31a22.07,22.07,0,0,1,6.25,4.93c1,1.3,2.13,3.15,2,4.87s-1.92,2.82-3.55,3c-2,.22-3.85-.77-5.52-1.69a26.78,26.78,0,0,0-5.46-2.46c-3.22-.91-6.79-.54-9,2.1l-1.32,5.12a5.89,5.89,0,0,0,2.43,3.1c1.48,1,3.22,1.73,4.47,3.09s1.54,3.4,0,4.77a10,10,0,0,1-4.85,1.9,20.59,20.59,0,0,1-5.43.24l-.2.78a21.42,21.42,0,0,0,6.24-.32c2.75-.55,7-2.16,6.08-5.75-.9-3.75-5.59-4.07-7.48-7s.84-6.67,3.81-7.46a10.45,10.45,0,0,1,6.15.53,57.65,57.65,0,0,1,5.57,2.76,8.37,8.37,0,0,0,5,1,4.81,4.81,0,0,0,3.5-2.29C669.69,243.51,669.13,241.71,668.39,240.23Zm-6.46-15.69a9.13,9.13,0,0,0,8.2,4.19,8.08,8.08,0,0,0,6.69-5.56c1.86-5.86-4.23-9.23-8.23-11.93-2-1.35-4.18-3-4.92-5.36a5.85,5.85,0,0,1-.26-1.82l-.72-.59a6.56,6.56,0,0,0,.85,4.08c2.61,4.51,8.53,5.66,11.52,9.83a6.38,6.38,0,0,1,1.28,3.9,6.9,6.9,0,0,1-1.93,4.43,7.1,7.1,0,0,1-9.23.94,8.89,8.89,0,0,1-3.38-4c-.72-1.72-.73-3.62-1.07-5.42a6.68,6.68,0,0,0-2.31-4.25,6.14,6.14,0,0,0-3.71-1.2l.37.82a4.75,4.75,0,0,1,3.71,1.85c1.12,1.49,1.25,3.48,1.5,5.26A11,11,0,0,0,661.93,224.54ZM675,240.66a5.61,5.61,0,0,0,7.26,3.46c3.56-1.3,5.8-4.82,7.37-8.06.25-.52.49-1,.7-1.57l-.53-.77a29,29,0,0,1-2.63,5.1c-1.85,2.83-5.7,6.4-9.29,4.25-2.89-1.74-3.12-5.86-2-8.69a20.29,20.29,0,0,1,3.18-5c1.24-1.55,2.51-3.07,3.67-4.68l.09-.12-.53-.64c-.74,1-1.5,2-2.3,3a55.74,55.74,0,0,0-3.46,4.52C674.8,234.19,673.8,237.49,675,240.66Zm24.07,11.07a11.52,11.52,0,0,1-5.56,2.27,36,36,0,0,1-6.4.13l-7-.24c-4.09-.14-8.39-.63-12.44.17-3.31.66-6.25,2.45-7.55,5.67a6.93,6.93,0,0,0-.44,3.9l.76,0q-.06-.3-.09-.6c-.27-3.44,2.29-6.41,5.37-7.56,3.88-1.46,8.27-1,12.32-.82l7,.24c2.17.07,4.36.21,6.53.11a15.16,15.16,0,0,0,5.75-1.22,10.25,10.25,0,0,0,1.88-1.12A7.43,7.43,0,0,0,699.11,251.73Z" style="fill: rgb(255, 255, 255); transform-origin: 669.64px 230.848px;" id="elvjuwxb50v3k" class="animable"></path><path d="M683.72,239.26a64.06,64.06,0,0,0-8.75-3.11,62.72,62.72,0,0,0-9-1.74c-1.74-.23-3.48-.37-5.22-.52a0,0,0,1,0,0,.08,82.15,82.15,0,0,1,9.07,1.66c3,.7,5.94,1.44,8.89,2.25,1.67.45,3.32,1,5,1.49A.06.06,0,1,0,683.72,239.26Z" style="fill: rgb(38, 50, 56); transform-origin: 672.274px 236.634px;" id="elqpo2y3ez3o" class="animable"></path><path d="M648.32,231.91c.29,0,16,2.05,16.49,2.18-.1-.21-4.26-7.54-4.87-8.61l-.18-.33c-.37-.46-.74-.91-1.09-1.39l-1.33-1.83s0,0,0,0l1.41,1.76.62.84-1.22-2.29c-.65-1.23-1.26-2.47-1.86-3.72a0,0,0,1,1,.06,0c1.22,2.14,2.51,4.23,3.74,6.37s5.88,10,5.86,9.95-17.34-2.6-17.68-2.67A.11.11,0,0,1,648.32,231.91Z" style="fill: rgb(38, 50, 56); transform-origin: 657.057px 226.68px;" id="el9f6q81ssbu" class="animable"></path><path d="M651,251c.89-3.53,1.76-7.06,2.78-10.56.59-2,1.16-4,1.76-5.95,0-.08.15-.05.14,0-.76,3.57-1.53,7.16-2.45,10.7s-1.8,7.06-2.76,10.57c-.55,2-1.15,4-1.82,5.93,0,0-.08,0-.07,0C649.18,258.11,650.07,254.56,651,251Z" style="fill: rgb(38, 50, 56); transform-origin: 652.13px 248.065px;" id="elyja1y0lvau" class="animable"></path><path d="M639.39,264.25c.37-1,.8-2.41,1.21-3.39.11-.26.29-.25.22,0-.26.89-.42,1.87-.67,2.77h2.36l2.73,0c1.78,0,3.56,0,5.34,0,3.6,0,7.21-.13,10.81-.31A211.13,211.13,0,0,0,683,261.32c2-.31,4-.66,6-1.07s4.18-.88,5.81-1.41c0,0,.08.07,0,.09a33.66,33.66,0,0,1-5,1.65c-1.78.43-3.58.82-5.38,1.14-3.59.65-7.22,1.11-10.85,1.47q-10.8,1.06-21.66,1.22-3,0-6.09,0c-1,0-2,0-3.06-.05A19.61,19.61,0,0,1,639.39,264.25Z" style="fill: rgb(38, 50, 56); transform-origin: 667.118px 261.625px;" id="elyd40ruvkmxh" class="animable"></path><rect x="571.26" y="269.48" width="66.33" height="2.97" style="fill: rgb(199, 199, 199); transform-origin: 604.425px 270.965px;" id="elc4w8agn4gc5" class="animable"></rect><polygon points="571.26 269.48 571.26 272.45 616.36 272.45 614.08 269.48 571.26 269.48" style="fill: rgb(166, 166, 166); transform-origin: 593.81px 270.965px;" id="ele8y0533pgzc" class="animable"></polygon><polygon points="611.22 272.45 546.57 272.45 541.19 228.55 605.84 228.55 611.22 272.45" style="fill: rgb(199, 199, 199); transform-origin: 576.205px 250.5px;" id="elrhpkobkc6us" class="animable"></polygon><path d="M580.14,250.5a3.85,3.85,0,0,1-3.87,3.93,4,4,0,0,1-4-3.93,3.86,3.86,0,0,1,3.87-3.94A4,4,0,0,1,580.14,250.5Z" style="fill: rgb(255, 255, 255); transform-origin: 576.205px 250.495px;" id="elsxqa0dofv8c" class="animable"></path><path d="M652.17,199.14c-.21,1.1-5.13,8.42-10.14,8.4-1.63,0-2-8.92-2-8.92l-.17-.65-2.45-9.12L648,181.46l1.53-1s.5,2.54,1.1,5.71l.09.45c0,.18.07.35.1.51.1.48.19,1,.28,1.44s.13.73.18,1.11.12.77.19,1.16A61.83,61.83,0,0,1,652.17,199.14Z" style="fill: rgb(173, 99, 89); transform-origin: 644.79px 194px;" id="elvg9h0vrmqj7" class="animable"></path><path d="M650.59,186.18A19,19,0,0,1,639.89,198l-2.45-9.12L648,181.46l1.53-1S650,183,650.59,186.18Z" style="fill: rgb(38, 50, 56); transform-origin: 644.015px 189.23px;" id="el00nkdd0xwvn8" class="animable"></path><path d="M658.81,173.52a2.79,2.79,0,0,0,2.21-.2c.2-.14.37-.31.57-.44a1.73,1.73,0,0,1,1-.24,6.11,6.11,0,0,0,1.21-.08,3.25,3.25,0,0,0,2.81-2.17,4,4,0,0,0,4.59-2.1,3.62,3.62,0,0,0,.24-.7,2.54,2.54,0,0,1,.28-1,3.18,3.18,0,0,1,.92-.6,4.24,4.24,0,0,0,.69-.51,1.55,1.55,0,0,0,.28-2.05,2.57,2.57,0,0,0,1.51-2.39,4.42,4.42,0,0,0-1.37-3.43,3,3,0,0,0-.47-4.25,2.7,2.7,0,0,0-1.37-3.82,4,4,0,0,0-1.51-3.43,1.69,1.69,0,0,1-.49-.6,3,3,0,0,0-.7-2.49,2.3,2.3,0,0,0-2.62-.53A4.48,4.48,0,0,0,665,141a3.05,3.05,0,0,0-3-.07,4.34,4.34,0,0,0-6.49-.3,3.14,3.14,0,0,0-3.26-1.19,6,6,0,0,0-3.42,2.59,2.2,2.2,0,0,0-2.83-.23,2.43,2.43,0,0,0-.93,2.12,3.42,3.42,0,0,0-2.1,1.53,2,2,0,0,0,.15,2.18,3,3,0,0,0-.87,5,3.58,3.58,0,0,0-1.53,6.4,3.19,3.19,0,0,0-1.36,3.22,4.7,4.7,0,0,0,2.68,3.27,3.21,3.21,0,0,0,.43,3.51,4.15,4.15,0,0,0,3,1.35,3,3,0,0,1-3.29-.72,3.35,3.35,0,0,1-.19-4.15s0,0,0,0a3.27,3.27,0,0,0,0,4.36,3.43,3.43,0,0,0,4.16.56,3.73,3.73,0,0,0,5.64,3.75C653.54,176.83,657.84,176.91,658.81,173.52Zm11-28.45,0-.1a3.37,3.37,0,0,0-.31-.76,3.15,3.15,0,0,0-1.35-1.23,3.24,3.24,0,0,0-.85-.27c-.16,0-.49,0-.49,0a.67.67,0,0,0-.06-.11,2.39,2.39,0,0,1,2.61,1A2.85,2.85,0,0,1,669.78,145.07Zm-24.43-1.24h0a2,2,0,0,1,.76-1.87,2.07,2.07,0,0,1,2.64.17l0,.06a2.34,2.34,0,0,0-2.63.42A2.53,2.53,0,0,0,645.35,143.83ZM653,175a4.19,4.19,0,0,0,5.64-1.49h0C657.51,176.28,655,176.3,653,175Z" style="fill: rgb(38, 50, 56); transform-origin: 657.202px 157.718px;" id="elsewl0y1l2oa" class="animable"></path><path d="M625.74,171.49c-4.9,15.83,4,20.56,7.44,21.61,3.1,1,13.78,3.82,20.29-11.42s.7-22.52-6.27-25.09S630.64,155.66,625.74,171.49Z" style="fill: rgb(173, 99, 89); transform-origin: 640.303px 174.788px;" id="elpovwmod2rxj" class="animable"></path><path d="M628.82,169.45a8.74,8.74,0,0,0,1.14.08,1.83,1.83,0,0,0,1.18-.14.59.59,0,0,0,.2-.69,1.45,1.45,0,0,0-1.29-.72,2.13,2.13,0,0,0-1.51.36A.63.63,0,0,0,628.82,169.45Z" style="fill: rgb(38, 50, 56); transform-origin: 629.843px 168.765px;" id="el2t9haujnsbe" class="animable"></path><path d="M639.76,172.54a9.79,9.79,0,0,1-1-.54c-.39-.21-.72-.33-.93-.74a.58.58,0,0,1,.2-.69,1.46,1.46,0,0,1,1.48.07,2.15,2.15,0,0,1,1.08,1.1C640.82,172.24,640.23,172.74,639.76,172.54Z" style="fill: rgb(38, 50, 56); transform-origin: 639.214px 171.493px;" id="elqc36guev6rb" class="animable"></path><path d="M636.11,175.73s.07.08.06.12c-.37,1.07-.61,2.35.25,3,0,0,0,.08,0,.06C635.25,178.38,635.59,176.68,636.11,175.73Z" style="fill: rgb(38, 50, 56); transform-origin: 636.026px 177.322px;" id="el1he5z5bn5gg" class="animable"></path><path d="M637.43,174.9c1.77.41.83,3.93-.82,3.55S635.94,174.56,637.43,174.9Z" style="fill: rgb(38, 50, 56); transform-origin: 637.067px 176.678px;" id="elpv9jgly6fy" class="animable"></path><path d="M638.07,175.27c.25.29.46.72.82.85s.84-.12,1.21-.4c0,0,.07,0,0,.06-.17.68-.61,1.3-1.36,1.2s-1-.81-1-1.53C637.81,175.32,638,175.16,638.07,175.27Z" style="fill: rgb(38, 50, 56); transform-origin: 638.936px 176.112px;" id="eltunvcio4grh" class="animable"></path><path d="M630.12,173.87s-.1,0-.11.08c-.25,1.1-.72,2.32-1.8,2.42,0,0-.05.06,0,.06C629.45,176.58,630.06,175,630.12,173.87Z" style="fill: rgb(38, 50, 56); transform-origin: 629.154px 175.155px;" id="elo6m9yq8wk9" class="animable"></path><path d="M629.44,172.48c-1.72-.59-2.78,2.89-1.18,3.44S630.88,173,629.44,172.48Z" style="fill: rgb(38, 50, 56); transform-origin: 628.801px 174.196px;" id="elsycjdark6t" class="animable"></path><path d="M628.64,172.49c-.33.1-.7.35-1,.27s-.55-.55-.69-1c0,0,0,0-.06,0-.22.66-.21,1.42.39,1.74s1.15-.15,1.51-.77C628.82,172.66,628.78,172.44,628.64,172.49Z" style="fill: rgb(38, 50, 56); transform-origin: 627.779px 172.682px;" id="elrmkxqglkwjo" class="animable"></path><path d="M633.84,184.71c-.33.2-.67.49-1.07.44a2.88,2.88,0,0,1-1.13-.54,0,0,0,0,0-.06,0,1.53,1.53,0,0,0,1.27.9,1.18,1.18,0,0,0,1.08-.78C634,184.72,633.88,184.68,633.84,184.71Z" style="fill: rgb(38, 50, 56); transform-origin: 632.766px 185.06px;" id="ellr49tl0d0qe" class="animable"></path><path d="M630.4,179.5s-.68,1.56-.9,2.33c0,.07.16.16.41.24,0,0,0,0,0,0a3.79,3.79,0,0,0,3.92-.36.08.08,0,0,0-.08-.14,5.72,5.72,0,0,1-3.59,0c0-.23,1.25-2.63,1.13-2.68a6.9,6.9,0,0,0-1.85-.09c1.33-3.29,3.17-6.34,4.44-9.64a.11.11,0,0,0-.19-.1,58.15,58.15,0,0,0-5.22,10.17C628.32,179.68,630.06,179.55,630.4,179.5Z" style="fill: rgb(38, 50, 56); transform-origin: 631.172px 175.738px;" id="el3a869uaf9ob" class="animable"></path><path d="M652.51,181c-3.08,0-3-7.06-3-7.06s-12.64-3.85-12.38-14.51A18,18,0,0,1,626.92,168s1.94-11.47,11.37-12.54c0,0,11.87-2.67,17.1,7.15S654.58,181,652.51,181Z" style="fill: rgb(38, 50, 56); transform-origin: 642.194px 168.064px;" id="eljfpebzqoxqb" class="animable"></path><path d="M637.21,158.67a11.47,11.47,0,0,0,0,4.88,12.18,12.18,0,0,0,1.89,4.56,10.26,10.26,0,0,0,.76,1l.4.48.44.44c.31.28.6.57.91.84l1,.72c.17.11.33.24.51.35l.54.29,1.08.58c.75.32,1.52.6,2.28.86-.7-.42-1.43-.76-2.11-1.18l-1-.65-.5-.33-.46-.38c-.3-.26-.6-.51-.92-.75s-.55-.56-.83-.84l-.41-.42-.37-.47a9.64,9.64,0,0,1-.71-.94,13.8,13.8,0,0,1-1.95-4.27,14.18,14.18,0,0,1-.43-2.34A13.85,13.85,0,0,1,637.21,158.67Z" style="fill: rgb(38, 50, 56); transform-origin: 641.984px 166.17px;" id="elxnt1cpmppik" class="animable"></path><path d="M651.22,186.82a3.07,3.07,0,0,1-.79,0,2.57,2.57,0,0,1-.77-.14,2.47,2.47,0,0,1-.87-.51,2.81,2.81,0,0,1-.51-.6,3.18,3.18,0,0,1-.41-1l1.83-4.14s4.64-4.28,6.65-2.52S654.13,186.41,651.22,186.82Z" style="fill: rgb(173, 99, 89); transform-origin: 652.371px 182.165px;" id="elf2tcnr1mtdo" class="animable"></path><path d="M655.09,179.8s0,.07,0,.07c-2.05.36-3.43,1.89-4.52,3.56a1.55,1.55,0,0,1,2.36.08s0,.11-.08.09a1.7,1.7,0,0,0-2,.18,8.36,8.36,0,0,0-1.21,1.31c-.13.15-.41,0-.31-.19l0,0C649.85,182.44,652.46,179.48,655.09,179.8Z" style="fill: rgb(38, 50, 56); transform-origin: 652.199px 182.464px;" id="elpu85dmxlic" class="animable"></path><path d="M651.15,186.09a.77.77,0,1,1-1.41-.61.77.77,0,1,1,1.41.61Z" style="fill: rgb(255, 255, 255); transform-origin: 650.445px 185.785px;" id="el9kpqlk407h" class="animable"></path><path d="M652.93,185.29a.54.54,0,1,1-.28-.71A.53.53,0,0,1,652.93,185.29Z" style="fill: rgb(255, 255, 255); transform-origin: 652.436px 185.075px;" id="elcygpkx3ads5" class="animable"></path><path d="M652.45,186.4c-.15.74,2.45-1.42,2.62-1.79s1.84-1.21,2.35-1.89a18.74,18.74,0,0,0,1.76-3.22c.14-.51,1.31-1.66,1.46-2.57s1.1-9.16-3.5-15.53-9.42-7.51-9.42-7.51a34.63,34.63,0,0,0-7.36-1.52c-4.05-.37-11.33,8.09-11.38,8.3a3.42,3.42,0,0,1-.16,1.41c-.28.54-1,1-.76,1.61s-.8,1.85-.88,2.44,0,.75-.12,1.13,3.35-9.5,16.18-11.06C643.24,156.2,655.72,170.43,652.45,186.4Z" style="fill: rgb(121, 196, 176); transform-origin: 643.939px 169.456px;" id="ell88ntnk3by" class="animable"></path><path d="M627.09,167.15a.45.45,0,0,1,0,.11S627.05,167.25,627.09,167.15Z" style="fill: rgb(121, 196, 176); transform-origin: 627.083px 167.205px;" id="eleczznc1svqk" class="animable"></path><path d="M627.1,167.15s0,.07,0,.11S627.05,167.25,627.1,167.15Z" style="fill: rgb(121, 196, 176); transform-origin: 627.089px 167.212px;" id="el5n2qm0m0fgs" class="animable"></path><g id="el5607kn5htga"><path d="M634.42,157.52A1.06,1.06,0,0,1,633,158a1.07,1.07,0,0,1-.6-1h0c.35-.33.71-.65,1.08-1h0a1.28,1.28,0,0,1,.43.1A1.07,1.07,0,0,1,634.42,157.52Zm4.82-1.38a1.06,1.06,0,0,0-1.43,1.36,18.93,18.93,0,0,1,2-.64A1.05,1.05,0,0,0,639.24,156.14Zm-7.8,4.31a1.06,1.06,0,0,0-1,1.85,20.29,20.29,0,0,1,1.49-1.39A1,1,0,0,0,631.44,160.45Zm22.2-3a1,1,0,0,0-.35.4,1.07,1.07,0,0,0,.51,1.41,1,1,0,0,0,1.31-.35C654.61,158.38,654.12,157.89,653.64,157.46Zm-.66,8.83a1.06,1.06,0,1,0,.5,1.4A1.06,1.06,0,0,0,653,166.29Zm-10-13.56h0c-.63-.11-1.3-.21-2-.29h0a1.05,1.05,0,1,0,2,.28Zm4.67,2.49a1.06,1.06,0,1,0,.5,1.4A1.06,1.06,0,0,0,647.7,155.22Zm2.16,5.51a1.06,1.06,0,1,0,.5,1.4A1.06,1.06,0,0,0,649.86,160.73Zm7.62,2.43a1.06,1.06,0,1,0,.5,1.41A1.06,1.06,0,0,0,657.48,163.16Zm-1.22,7.94a1.06,1.06,0,1,0-.9,1.91,1,1,0,0,0,1.4-.5A1.06,1.06,0,0,0,656.26,171.1Zm-2.74,11.61a1.06,1.06,0,0,0-.58-.09c0,.68-.1,1.37-.2,2a1.06,1.06,0,0,0,.78-2Zm-1.13-8.78a1.19,1.19,0,0,0-.23-.07c.14.62.27,1.25.38,1.89a1,1,0,0,0,.35-.41A1.06,1.06,0,0,0,652.39,173.93Zm7.87-5.28a1.06,1.06,0,0,0-.5,2,1,1,0,0,0,.84,0C660.52,170,660.41,169.35,660.26,168.65Zm-3.65,8.67a1,1,0,0,0-1.4.5,1.06,1.06,0,1,0,1.91.9A1,1,0,0,0,656.61,177.32Zm1.34,3.75a1,1,0,0,0,0,.86c.27-.45.57-1,.81-1.45A1,1,0,0,0,658,181.07Zm2.86-6.62a1.06,1.06,0,1,0-.13,2.08A17.62,17.62,0,0,0,660.81,174.45Z" style="fill: rgb(255, 255, 255); opacity: 0.3; transform-origin: 645.404px 168.557px;" class="animable"></path></g><g id="elpa8c9ebdeai"><path d="M655.07,184.61a11.69,11.69,0,0,0,.41-2.2c.09-.74.15-1.49.21-2.23.11-1.5.22-3,.26-4.49,0-.37,0-.75,0-1.11a5.06,5.06,0,0,0-.24-1.06c-.23-.71-.51-1.41-.77-2.11s-.56-1.39-.85-2.08l-.87-2.07c.68,1.34,1.31,2.7,1.9,4.08q.45,1,.81,2.1a4.66,4.66,0,0,1,.27,1.13c0,.38,0,.75,0,1.13-.06,1.5-.16,3-.32,4.49-.08.75-.17,1.5-.29,2.24-.06.37-.12.74-.2,1.11A5.09,5.09,0,0,1,655.07,184.61Z" style="fill: rgb(5, 4, 0); opacity: 0.1; transform-origin: 654.71px 175.935px;" class="animable"></path></g><g id="elv39b3yrwfi"><path d="M656.82,169.27a19.25,19.25,0,0,1,1.25,2.38,18.63,18.63,0,0,1,.92,2.53,12.48,12.48,0,0,1,.47,2.65,7.51,7.51,0,0,1-.28,2.67c0-.22.06-.44.1-.66a1.83,1.83,0,0,0,0-.33l0-.34c0-.11,0-.22,0-.33l0-.33c0-.22,0-.44,0-.66l-.08-.66-.13-.65c0-.22-.09-.43-.15-.65s-.1-.43-.16-.64c-.24-.86-.54-1.69-.86-2.53-.15-.41-.33-.82-.51-1.23S657,169.67,656.82,169.27Z" style="fill: rgb(5, 4, 0); opacity: 0.1; transform-origin: 658.151px 174.385px;" class="animable"></path></g><g id="elmuccegtfp8"><path d="M629,161.64a12.85,12.85,0,0,1,1.75-1.86c.61-.59,1.26-1.15,1.9-1.7s1.3-1.09,2-1.57a8.76,8.76,0,0,1,2.34-1,9.34,9.34,0,0,0-1.15.55,8,8,0,0,0-1.08.66c-.33.24-.66.51-1,.79l-1,.81-1.94,1.65c-.33.27-.64.55-1,.83A10.89,10.89,0,0,0,629,161.64Z" style="fill: rgb(5, 4, 0); opacity: 0.1; transform-origin: 632.995px 158.575px;" class="animable"></path></g><g id="el9r358mwgbf"><path d="M628.07,164.08a13.11,13.11,0,0,1,1.09-1.48,16,16,0,0,1,1.23-1.37c.23-.21.45-.43.7-.62l.75-.53.75-.53.77-.5c-.22.21-.46.41-.69.61l-.71.58-.71.57a6.47,6.47,0,0,0-.67.61c-.44.42-.85.87-1.27,1.31-.21.22-.42.44-.62.67S628.28,163.85,628.07,164.08Z" style="fill: rgb(5, 4, 0); opacity: 0.1; transform-origin: 630.715px 161.565px;" class="animable"></path></g><g id="el5jvuizfpsi7"><path d="M656.17,160.14c-2.19.56-7.22,1.76-8.28,1.51a6.89,6.89,0,0,1-1-.39,40.65,40.65,0,0,0-3.61-5.06,23.72,23.72,0,0,0-4.39.94A22.65,22.65,0,0,1,636,154c1.55-1.06,3.1-1.79,4.35-1.67a34.63,34.63,0,0,1,7.36,1.52S651.89,154.88,656.17,160.14Z" style="fill: rgb(5, 4, 0); opacity: 0.1; transform-origin: 646.085px 157px;" class="animable"></path></g><path d="M644.32,154.06s-3.31-6-9.16-6.9c0,0,0,5.85,2,7.87,1,1,5.58,1.61,6.15.87A10.1,10.1,0,0,0,644.32,154.06Z" style="fill: rgb(121, 196, 176); transform-origin: 639.74px 151.694px;" id="elxd72xo8s389" class="animable"></path><g id="elok9d85z1oha"><path d="M640.06,149.31a1.05,1.05,0,0,1-1.07.1,1.07,1.07,0,0,1-.59-1.15A12,12,0,0,1,640.06,149.31Zm-3.82,2a1,1,0,0,0-.71-.07,13.58,13.58,0,0,0,.54,2,1.07,1.07,0,0,0,.68-.57A1.05,1.05,0,0,0,636.24,151.28Zm6.2.66a1.06,1.06,0,1,0,.51,1.41A1.06,1.06,0,0,0,642.44,151.94Z" style="fill: rgb(255, 255, 255); opacity: 0.3; transform-origin: 639.296px 151.125px;" class="animable"></path></g><g id="eljtbxnpo2u5"><path d="M644.32,154.06a10.9,10.9,0,0,1-1.06,1.83.18.18,0,0,1-.09.08.38.38,0,0,1-.14.09l-.12,0a6.42,6.42,0,0,1-2.55,0,13.58,13.58,0,0,1,.75-2.5,3.77,3.77,0,0,1,1.83-1.52A13.24,13.24,0,0,1,644.32,154.06Z" style="fill: rgb(5, 4, 0); opacity: 0.1; transform-origin: 642.34px 154.114px;" class="animable"></path></g><path d="M645.73,154.92S654,154,657.84,156c0,0-2.34,4.18-6.49,5.05-1.86.39-7.09-3.19-6.76-4.15A8.37,8.37,0,0,1,645.73,154.92Z" style="fill: rgb(121, 196, 176); transform-origin: 651.208px 157.894px;" id="elwphyjigl9p" class="animable"></path><g id="el4xi2ik2ixci"><path d="M655.2,158.77a1,1,0,0,1-1.4.5,1.06,1.06,0,1,1,.9-1.91A1.06,1.06,0,0,1,655.2,158.77Zm-7.5-3.55a1.06,1.06,0,1,0,.5,1.4A1.06,1.06,0,0,0,647.7,155.22Zm2.16,5.51a1.07,1.07,0,0,0-.52-.1,5.58,5.58,0,0,0,.78.27A.78.78,0,0,0,649.86,160.73Z" style="fill: rgb(255, 255, 255); opacity: 0.3; transform-origin: 650.74px 158.007px;" class="animable"></path></g><g id="elmhbggw8rktd"><path d="M647.6,154.78a4.76,4.76,0,0,1-.27,2.71,4.13,4.13,0,0,1-1.13,1.29c-1-.77-1.73-1.53-1.61-1.9a8.23,8.23,0,0,1,1.14-2S646.46,154.84,647.6,154.78Z" style="fill: rgb(5, 4, 0); opacity: 0.1; transform-origin: 646.132px 156.78px;" class="animable"></path></g><path d="M646.5,156.82a2.7,2.7,0,1,1-1-3.69A2.68,2.68,0,0,1,646.5,156.82Z" style="fill: rgb(121, 196, 176); transform-origin: 644.163px 155.474px;" id="eljd8f7i3gvb" class="animable"></path><path d="M636.43,202.92s.54,6.53,6.62,7.21,16.1-9.28,16.1-9.28-5-4.86-12-4.61C641.48,196.45,636.43,202.92,636.43,202.92Z" style="fill: rgb(173, 99, 89); transform-origin: 647.79px 203.197px;" id="el11hu7z7pux1i" class="animable"></path></g><g id="freepik--speech-bubble--inject-45" class="animable" style="transform-origin: 683.385px 110.894px;"><path d="M709.19,110.93a24.37,24.37,0,0,1-38.91,19.57l-11.95,3.05,5-11.12a24.38,24.38,0,1,1,45.88-11.5Z" style="fill: rgb(255, 255, 255); transform-origin: 683.77px 110.934px;" id="elywwfjgasimt" class="animable"></path><path d="M709.19,110.93a24.49,24.49,0,0,1-3.61,12.8,26.25,26.25,0,0,1-1.93,2.76,28.31,28.31,0,0,1-2.33,2.44A24.67,24.67,0,0,1,689.44,135a23.73,23.73,0,0,1-3.36.42,21.32,21.32,0,0,1-3.39,0,24.59,24.59,0,0,1-12.62-4.67l.3.06L658.44,134l-.88.23.37-.84,4.94-11.14v.43a24.71,24.71,0,0,1-.77-21.78A25,25,0,0,1,668.87,92a24.48,24.48,0,0,1,9.94-5,24.35,24.35,0,0,1,21,4.63A24.49,24.49,0,0,1,709.19,110.93Zm0,0A24.11,24.11,0,0,0,679,87.56a23.86,23.86,0,0,0-9.6,5,25.09,25.09,0,0,0-6.43,8.67,24,24,0,0,0-2,10.58,24.3,24.3,0,0,0,2.81,10.38l.11.21-.1.22-5,11.1-.51-.6,12-3,.17,0,.13.1A24,24,0,0,0,682.73,135a21.76,21.76,0,0,0,3.33,0,23.38,23.38,0,0,0,3.32-.35,24,24,0,0,0,6.32-2.1,22.41,22.41,0,0,0,5.52-3.77,26.51,26.51,0,0,0,2.34-2.4,25.08,25.08,0,0,0,1.94-2.74A24.41,24.41,0,0,0,709.19,110.93Z" style="fill: rgb(38, 50, 56); transform-origin: 683.375px 110.894px;" id="elyb3ekzdqo8c" class="animable"></path><path d="M691.41,104.44v7.28h-2.06v-7.28a4.7,4.7,0,1,0-9.38,0v7.28h-2.05v-7.28a6.76,6.76,0,1,1,13.49,0Z" style="fill: rgb(235, 235, 235); transform-origin: 684.665px 104.475px;" id="elh0b6isblxel" class="animable"></path><polygon points="677.91 106.33 679.97 106.42 679.97 111.72 677.91 111.72 677.91 106.33" style="fill: rgb(219, 219, 219); transform-origin: 678.94px 109.025px;" id="elrhc5edgvh5p" class="animable"></polygon><polygon points="691.41 106.88 691.41 111.72 689.35 111.72 689.35 106.8 691.41 106.88" style="fill: rgb(219, 219, 219); transform-origin: 690.38px 109.26px;" id="elvei5rowovob" class="animable"></polygon><rect x="675.28" y="109.03" width="18.77" height="15.57" style="fill: rgb(121, 196, 176); transform-origin: 684.665px 116.815px;" id="elcp6vqsn1bu7" class="animable"></rect><path d="M685.46,116.71l.78,3.73h-3.33l.78-3.73a1.66,1.66,0,0,1,.88-3.07,1.66,1.66,0,0,1,1.67,1.66A1.65,1.65,0,0,1,685.46,116.71Z" style="fill: rgb(38, 50, 56); transform-origin: 684.573px 117.04px;" id="ele3dxfrekccw" class="animable"></path></g><defs>     <filter id="active" height="200%">         <feMorphology in="SourceAlpha" result="DILATED" operator="dilate" radius="2"></feMorphology>                <feFlood flood-color="#32DFEC" flood-opacity="1" result="PINK"></feFlood>        <feComposite in="PINK" in2="DILATED" operator="in" result="OUTLINE"></feComposite>        <feMerge>            <feMergeNode in="OUTLINE"></feMergeNode>            <feMergeNode in="SourceGraphic"></feMergeNode>        </feMerge>    </filter>    <filter id="hover" height="200%">        <feMorphology in="SourceAlpha" result="DILATED" operator="dilate" radius="2"></feMorphology>                <feFlood flood-color="#ff0000" flood-opacity="0.5" result="PINK"></feFlood>        <feComposite in="PINK" in2="DILATED" operator="in" result="OUTLINE"></feComposite>        <feMerge>            <feMergeNode in="OUTLINE"></feMergeNode>            <feMergeNode in="SourceGraphic"></feMergeNode>        </feMerge>            <feColorMatrix type="matrix" values="0   0   0   0   0                0   1   0   0   0                0   0   0   0   0                0   0   0   1   0 "></feColorMatrix>    </filter></defs></svg>